<svg id="PATTERN" xmlns="http://www.w3.org/2000/svg" xmlns:xlink="http://www.w3.org/1999/xlink" viewBox="0 0 500 500"><defs><style>.cls-1{fill:none;}.cls-2{fill:#fff;}.cls-3{fill:#eb3398;}.cls-4{clip-path:url(#clip-path);}.cls-5{fill:url(#Nueva_muestra_de_motivo_141);}</style><clipPath id="clip-path"><path class="cls-1" d="M116.11,187.88c-2-2.29-4.51-4.07-6.51-6.38a7.16,7.16,0,0,0-8.64-1.11,8,8,0,0,0-3.27,4.26c-1.08,2.71.68,6.79,3.27,8,4.51,2.2,9.62,3.48,14.37,1.22C117.72,192.78,117.59,189.6,116.11,187.88Z"/></clipPath><pattern id="Nueva_muestra_de_motivo_141" data-name="Nueva muestra de motivo 141" width="281.64" height="281.64" patternUnits="userSpaceOnUse" viewBox="0 0 281.64 281.64"><rect class="cls-1" width="281.64" height="281.64"/><path class="cls-2" d="M648.12,566.44c-4.12-22.91-29.4-32.6-50.2-29.66a84.85,84.85,0,0,0-20.76,6,68.71,68.71,0,0,0-11.32,5.58c.24-.41.49-.81.73-1.21a1.83,1.83,0,0,0,0-1.95A9.06,9.06,0,0,0,567,544a2.26,2.26,0,0,0-1.48-2.69,46.44,46.44,0,0,0,20.1-16.23c6.62-9.49,8.38-20.81,7.34-32.17-2-22.14-8.74-44-27.61-56.69a4.39,4.39,0,0,0,2.35-2c1.09.45,2.18.93,3.25,1.43,3.66,1.71,8.92-2.09,6.13-6.14a32.23,32.23,0,0,0-4.13-4.82c1.82-2.17,1.21-6.56-2.09-7.6l-.37-.12a16.09,16.09,0,0,0-3.81-2.07l1.23-.74c3.89-2.42,1.83-7.83-1.65-8.39a27,27,0,0,0,3.93-6.5c5-11.81,4.27-27.13.46-39.18a49.65,49.65,0,0,0-6.4-13.2c2.59-.62,4.78-3.53,2.86-6.09l-1.3-1.77a4.68,4.68,0,0,0,1-6,3.72,3.72,0,0,0,1-4.1,50.76,50.76,0,0,1-3-21.42,3.79,3.79,0,0,0-1.35-3.31A25.5,25.5,0,0,0,554,278.34c-4.58-3.51-9,4.27-4.53,7.74,6.88,5.26,6.85,15.4,2.72,22.3-4.82,8.05-13.67,12.39-22.47,14.61-15.92,4-43,6.23-47.13-15.17.14-.7.28-1.41.39-2.12a3.67,3.67,0,0,0,4.22-3.14,27.87,27.87,0,0,0-6.66-24.41c-3-3.4-8.23.24-7.27,4.24,3.64,15.2,3.17,34.33-12.61,42.47a3.56,3.56,0,0,0-1.87,2.29,38.5,38.5,0,0,0-4.05,3.5,4,4,0,0,0-3.1.59l-.11.06-13.59,1a4.6,4.6,0,0,0-2.64,1q-11.23-4.8-22.46-9.63a4.35,4.35,0,0,0-3-.22l-2.07-1.35a3.52,3.52,0,0,0-1.41-2.46,50.53,50.53,0,0,1-19.33-37.65,4.09,4.09,0,0,0-4.35-4.2,4.58,4.58,0,0,0-6.13-1.42,4.6,4.6,0,0,0-5.55-1.21c-2.28-1-5.13-.45-5.55,2.63-.05.38-.1.76-.14,1.14h0a.34.34,0,0,1,0,.1,46.22,46.22,0,0,0,.09,11.15h0a.51.51,0,0,1,0,.13,68.16,68.16,0,0,1-5.9,23.89,4.38,4.38,0,0,0,0,3.75,101.48,101.48,0,0,1-3.41,10.33c-2.68,5.33-6.1,10.4-8.82,15.75a4.63,4.63,0,0,0-4.51,1.8c-9.86,12.89-29.07,11.27-40.72,2.08-9.34-7.36-17.05-20-17.91-32.47A76.94,76.94,0,0,1,285.93,303c1.19-5.14-6-7-7.8-2.15a36.62,36.62,0,0,0-1.69,18.57c0,.29,0,.58.06.87h.05a3.59,3.59,0,0,0,.28,1.3,54.32,54.32,0,0,0,6.41,16.44,30.75,30.75,0,0,0-9.31-3.6,1.91,1.91,0,0,0-1.46,3.47,74,74,0,0,1,5.87,4.56,3.38,3.38,0,0,0,.36,3.75,104.53,104.53,0,0,1,8,12.05,4,4,0,0,0-1.26,4.42q2.66,8.93,5.3,17.84a4.78,4.78,0,0,0,1.13,2c0,1.36.06,2.73.1,4.09-.23,1.05-.44,2.11-.65,3.17a84.72,84.72,0,0,1-8.7,16.29c-3.49,5.1-4.52,9.37-4.37,15.57.11,4.8.61,9.92,3.14,14.12a13.15,13.15,0,0,0,6.11,5.18,4.46,4.46,0,0,0,.73,1.51c12.75,17.5,24.87,38.14,22.93,60.62-.81,9.29-4.17,18.77-10.16,26-7.11,8.58-16.82,10.73-26.51,15.16-3.13,1.43-1.61,6.78,1.76,6.52A45,45,0,0,0,301,541.06a4.72,4.72,0,0,0,3.9-.11c22.69-10.07,49.69-.74,59.7,21.22.91,2.63,1.82,5.25,2.72,7.88a4.49,4.49,0,0,0,2.43,2.74c.84,1.55,1.69,3.1,2.59,4.63,1.85,3.12,7.37,2.81,8.16-1.07a41.84,41.84,0,0,0,.83-8.46l.24.46a3.83,3.83,0,0,0,4.16,2.19c1.32,17.63,15.49,32.29,32.15,38.75,9.39,4.7,19.89,7.45,30.39,5.39a38,38,0,0,0,24.63-17.1,38.63,38.63,0,0,0,4-31.1c-.07-.24-.15-.49-.23-.73a3,3,0,0,0,.59-.16s0,.08,0,.12a1,1,0,0,0,1.7.33,2.16,2.16,0,0,0,.94.12c.81,1.7,3.71,1.53,3.95-.37,1.18,2.71,2.18,5.46,2,8.49-.27,4.65-2.76,8.88-3.36,13.48-2.42,18.53,24.13,21.8,37,20.78,15.79-1.24,35.41-8,38.8-25.71,1.47-7.67-1.31-14.14-6.06-19.49l4.09,3.37A2.5,2.5,0,0,0,559,567c.81,1.84,1.85,3.58,2.72,5.38a28.5,28.5,0,0,1,2.79,14.54,1.71,1.71,0,0,0,.17.88c-.66,10.66-.32,20.64,5.05,30.51,10.51,19.31,35.8,26.92,53.75,13,9.35-7.29,14.79-18.06,18.71-29C646.21,591,650.28,578.5,648.12,566.44Zm-361-145.34a4.55,4.55,0,0,0-.82-.24c0-.76,0-1.49,0-2.18,0-.32,0-.63.06-.94a18.86,18.86,0,0,0,.65,2.2,3.52,3.52,0,0,0,.8,1.25,2.5,2.5,0,0,0,.05.29C287.59,421.36,287.34,421.22,287.07,421.1Zm167.2-64.64a12.41,12.41,0,0,1-.35-1.67,43.44,43.44,0,0,1,.68-6.18,13.64,13.64,0,0,1,5.86-6.87c5.57-3.26,12.36-2.78,18.26-.79,5.17,1.75,9.78,4.92,15.32,5.53,4.65.52,8.88-1.1,12.94-3.2,10.68-5.54,21.21-11.9,33.7-8.53,11,3,19.54,11.49,24,21.74a60.26,60.26,0,0,1,3.59,34.58,27.19,27.19,0,0,1-18,21c-14.9,4-32.68,1.94-42.55-9.75-4.18-5.61-6.63-12.47-11.34-17.73a18.64,18.64,0,0,0-10-6c-5.66-1.21-11.34.61-17,.29-11.2-.63-15.2-10.87-15.47-21.09A1.08,1.08,0,0,0,454.27,356.46Zm100.17,64.46-1.47-.29,1.41-.4A5.36,5.36,0,0,0,554.44,420.92Zm-108.29-19.5a36.26,36.26,0,0,1,11-7.41,22,22,0,0,1,3.15-1q3.39,0,6.78,0c8.55,2.63,18.83,8.51,21.2,17.08a13.58,13.58,0,0,1-.32,3.56c-1.18,5.33-5.59,9.3-9.56,12.73-7.49,6.46-14.33,12.94-19.47,21.51s-6.9,17.59-10,26.9c-4.05,12.06-17.22,15.7-28.82,15.35-10.54-.32-22.8-3.21-30.68-10.64-8.23-7.75-9.09-20.15-5.46-30.33,3.72-10.41,11.89-18.44,21.85-22.92,9.2-4.14,19.16-6.22,27.3-12.48a66.12,66.12,0,0,0,5.9-5.25c1-.76,2-1.56,2.94-2.42A32.94,32.94,0,0,0,446.15,401.42Zm4.55,127.12a103.4,103.4,0,0,1-17.71.29,70.16,70.16,0,0,1-9.84-3c-5.45-2.11-11.52-5.79-12.13-12.2s5.42-9.71,10.85-10.94c5.11-1.16,10.28-1.37,15.37-2.7,3.7-1,9-2.29,12.78-.64,6,6.83,11.55,18.7,5.12,26.05A12.11,12.11,0,0,1,450.7,528.54Zm1.45,9.06-1.22,0-1.3-.06c.75-.08,1.5-.18,2.25-.28Zm-65.8-44.1c0,.12,0,.24-.06.36l-2.12-2.4C384.89,492.15,385.62,492.83,386.35,493.5Zm6.36-172.23,2,1.44-.14.18a23.77,23.77,0,0,0-2.18-1.59A2.58,2.58,0,0,0,392.71,321.27Zm-30,24.28c3.54-9.45,8.38-22.36,19.16-24.47a12.57,12.57,0,0,1,3.89.34c4.63,1.17,8,5,11.28,8.14,5.79,5.52,12.51,8.54,19.82,11.55,8.59,3.53,16.28,7.81,20.73,16.33a33.8,33.8,0,0,1,2.79,23.69c-4.25,16.72-21.31,27.59-38.07,27.24-17.93-.37-36.63-12.6-42.4-29.94C356.25,367.57,358.76,356,362.66,345.55ZM325,479.24l-.06-.29c.07-.65.14-1.3.22-1.95,0,1.09,0,2.17.08,3.25Zm.61,34.36a1.88,1.88,0,0,1-.16-.23c0-.39.05-.78.06-1.18l.48,1.36Zm45.47,16.33a44.07,44.07,0,0,1-15.24-4.59,83.51,83.51,0,0,1-13.54-10c-1-1-1.93-2.07-2.82-3.16-9.39-11.52-10.4-24.93-10.22-39.26.14-11.1.06-23-5.88-32.85-3.47-5.72-8.67-8.57-13.63-12.75-6-5-7.8-12.44-7.39-20a42.94,42.94,0,0,1,8.52-23.47c2.61-1.89,5.26-3.75,8-5.47s5.61-3.38,8.91-3.27c2.91.1,5.37,1.67,7.95,2.81a1.1,1.1,0,0,0,.87,0c.51.4,1,.82,1.44,1.24a39,39,0,0,1,10.32,18.56c3.44,13.84-2.82,26.74-2.94,40.5-.12,13.16,8.45,22.83,16.1,32.7q6.17,7.95,12.71,15.58c4.66,5.43,9.94,10.5,14.2,16.26,3.88,5.26,6.82,11.95,3.44,18.24C387.83,528.52,378.94,530.75,371.08,529.93Zm183.44,48c.44,9.11-6.1,16.71-13.7,20.81-8,4.33-17.68,6.06-26.71,6-8.52,0-21.74-1.51-26.66-9.76-4.37-7.33,3-16,1.86-23.86-.62-4.25-4.8-10.61-5.54-16a1.89,1.89,0,0,0,.21-.76c.5-12.56,21-8.56,28.53-6.91a82.29,82.29,0,0,1,24.54,9.68C544.66,561.72,554,568.14,554.52,577.94Zm-24.8-41.08c-11.5-2.83-23.24-5.13-35.12-5.55-9.3-.33-20.5,1.81-24.69,11.31-4.68,10.62,3.73,21.72,4.38,32.32A34.47,34.47,0,0,1,456.62,607c-13.22,7.39-28.24,4.27-41-2.51a1.6,1.6,0,0,0-.91-.18c-15.67-10.16-29.39-26.32-23.15-46.15a25.64,25.64,0,0,1,7.79-12.3,56.2,56.2,0,0,1,6.2-3.72c13.34-5.48,32.28-.62,46.32-.39,7.92.13,16.25-1.79,19.74-9.69,4.17-9.45-.55-19.27-3.38-28.31-6.36-20.38.58-43.5,16.19-57.84,15.93-14.64,39.57-19.49,60.29-14.05,10.35,2.71,20.22,8,27.57,15.86,8.43,9,12,20.81,14.32,32.67,2.38,12.16,4,25.42-1.62,37a41.45,41.45,0,0,1-21.49,19.93C552.32,541.83,541.05,539.63,529.72,536.86ZM640.89,592.7c-3.14,10.58-7,21.43-14.28,29.91-6.63,7.7-15.9,12.69-26.23,11.93a34.22,34.22,0,0,1-25.72-15.48c-6.41-9.78-7.33-20.51-6.65-31.76a1.76,1.76,0,0,0,.07-.41c0-.67.08-1.33.09-2,.3-4.56.32-9.12-1.28-13.48-1.08-2.94-2.75-5.47-3.27-8.61a17.13,17.13,0,0,1,.55-7.78c2.17-2.36,5.28-4,8-5.34a97.21,97.21,0,0,1,17.21-6.61c18.51-5.09,42.66-2.27,52.07,17C646.53,570.37,644,582.22,640.89,592.7Z"/><path class="cls-2" d="M366.48,566.44c-4.12-22.91-29.4-32.6-50.2-29.66a85,85,0,0,0-20.76,6,68.71,68.71,0,0,0-11.32,5.58c.24-.41.49-.81.73-1.21a1.81,1.81,0,0,0,0-1.95,10.66,10.66,0,0,0,.46-1.2,2.24,2.24,0,0,0-1.48-2.69A46.39,46.39,0,0,0,304,525.08c6.62-9.49,8.38-20.81,7.34-32.17-2-22.14-8.74-44-27.61-56.69a4.41,4.41,0,0,0,2.36-2c1.09.45,2.17.93,3.24,1.43,3.66,1.71,8.93-2.09,6.13-6.14a31.66,31.66,0,0,0-4.13-4.82c1.83-2.17,1.22-6.56-2.09-7.6l-.37-.12a15.9,15.9,0,0,0-3.81-2.07c.42-.24.83-.49,1.24-.74,3.89-2.42,1.83-7.83-1.65-8.39a27.67,27.67,0,0,0,3.93-6.5c5-11.81,4.26-27.13.45-39.18a49.35,49.35,0,0,0-6.4-13.2c2.59-.62,4.78-3.53,2.86-6.09l-1.3-1.77a4.68,4.68,0,0,0,1-6,3.69,3.69,0,0,0,1-4.1,50.92,50.92,0,0,1-3-21.42,3.78,3.78,0,0,0-1.34-3.31,25.5,25.5,0,0,0-9.36-25.92c-4.57-3.51-9,4.27-4.52,7.74,6.88,5.26,6.84,15.4,2.71,22.3-4.82,8.05-13.67,12.39-22.47,14.61-15.92,4-43,6.23-47.13-15.17.15-.7.28-1.41.39-2.12a3.67,3.67,0,0,0,4.22-3.14,27.84,27.84,0,0,0-6.66-24.41c-3-3.4-8.23.24-7.27,4.24,3.64,15.2,3.17,34.33-12.6,42.47a3.58,3.58,0,0,0-1.88,2.29,38.39,38.39,0,0,0-4,3.5,4,4,0,0,0-3.11.59l-.11.06-13.58,1a4.57,4.57,0,0,0-2.64,1l-22.47-9.63a4.34,4.34,0,0,0-3-.22l-2.06-1.35a3.56,3.56,0,0,0-1.41-2.46,50.55,50.55,0,0,1-19.34-37.65,4.09,4.09,0,0,0-4.35-4.2A4.57,4.57,0,0,0,95,276.44a4.6,4.6,0,0,0-5.55-1.21c-2.28-1-5.14-.45-5.56,2.63-.05.38-.09.76-.13,1.14h0v.1a46.22,46.22,0,0,0,.1,11.15h0s0,.08,0,.13a68.14,68.14,0,0,1-5.89,23.89A4.31,4.31,0,0,0,78,318a104.08,104.08,0,0,1-3.42,10.33c-2.67,5.33-6.09,10.4-8.82,15.75a4.64,4.64,0,0,0-4.51,1.8c-9.85,12.89-29.07,11.27-40.72,2.08-9.33-7.36-17-20-17.91-32.47A78.06,78.06,0,0,1,4.29,303c1.19-5.14-6-7-7.8-2.15a36.62,36.62,0,0,0-1.68,18.57c0,.29,0,.58.05.87h0a3.81,3.81,0,0,0,.28,1.3A54.84,54.84,0,0,0,1.6,338.06a30.69,30.69,0,0,0-9.3-3.6,1.91,1.91,0,0,0-1.47,3.47,74,74,0,0,1,5.87,4.56,3.4,3.4,0,0,0,.36,3.75,104.61,104.61,0,0,1,8,12.05,4,4,0,0,0-1.27,4.42l5.31,17.84a4.66,4.66,0,0,0,1.12,2c0,1.36.06,2.73.1,4.09-.22,1.05-.44,2.11-.64,3.17A85.32,85.32,0,0,1,1,406.07c-3.49,5.1-4.51,9.37-4.37,15.57.12,4.8.62,9.92,3.14,14.12a13.25,13.25,0,0,0,6.11,5.18,4.46,4.46,0,0,0,.73,1.51c12.76,17.5,24.88,38.14,22.93,60.62-.8,9.29-4.17,18.77-10.16,26-7.11,8.58-16.82,10.73-26.51,15.16-3.12,1.43-1.6,6.78,1.77,6.52a45,45,0,0,0,24.77-9.68,4.72,4.72,0,0,0,3.9-.11C46,530.88,73,540.21,83,562.17c.9,2.63,1.81,5.25,2.72,7.88a4.44,4.44,0,0,0,2.43,2.74c.83,1.55,1.69,3.1,2.59,4.63,1.85,3.12,7.37,2.81,8.15-1.07a41.85,41.85,0,0,0,.84-8.46l.24.46a3.81,3.81,0,0,0,4.15,2.19c1.32,17.63,15.49,32.29,32.15,38.75,9.39,4.7,19.9,7.45,30.39,5.39a38,38,0,0,0,24.64-17.1,38.63,38.63,0,0,0,4-31.1l-.22-.73a2.76,2.76,0,0,0,.58-.16l0,.12a1,1,0,0,0,1.69.33,2.19,2.19,0,0,0,1,.12c.81,1.7,3.71,1.53,3.95-.37,1.17,2.71,2.17,5.46,2,8.49-.27,4.65-2.76,8.88-3.36,13.48-2.43,18.53,24.12,21.8,37,20.78,15.78-1.24,35.4-8,38.8-25.71,1.47-7.67-1.32-14.14-6.07-19.49l4.09,3.37a2.5,2.5,0,0,0,2.61.26c.81,1.84,1.86,3.58,2.72,5.38a28.51,28.51,0,0,1,2.8,14.54,1.71,1.71,0,0,0,.17.88c-.66,10.66-.33,20.64,5,30.51,10.52,19.31,35.8,26.92,53.75,13,9.35-7.29,14.79-18.06,18.71-29C364.57,591,368.65,578.5,366.48,566.44ZM5.43,421.1a4.45,4.45,0,0,0-.81-.24c0-.76,0-1.49,0-2.18,0-.32,0-.63.07-.94a17,17,0,0,0,.64,2.2,3.66,3.66,0,0,0,.8,1.25c0,.1,0,.2,0,.29C6,421.36,5.7,421.22,5.43,421.1Zm167.21-64.64a11.07,11.07,0,0,1-.36-1.67,44.94,44.94,0,0,1,.68-6.18,13.62,13.62,0,0,1,5.87-6.87c5.56-3.26,12.35-2.78,18.25-.79,5.18,1.75,9.79,4.92,15.32,5.53,4.65.52,8.89-1.1,12.95-3.2,10.67-5.54,21.21-11.9,33.69-8.53,11,3,19.54,11.49,24,21.74a60.26,60.26,0,0,1,3.59,34.58,27.17,27.17,0,0,1-18,21c-14.89,4-32.68,1.94-42.54-9.75-4.19-5.61-6.63-12.47-11.34-17.73a18.71,18.71,0,0,0-10-6c-5.67-1.21-11.34.61-17,.29-11.2-.63-15.2-10.87-15.46-21.09A1.09,1.09,0,0,0,172.64,356.46ZM272.8,420.92l-1.47-.29,1.41-.4Q272.76,420.57,272.8,420.92Zm-108.29-19.5a36.26,36.26,0,0,1,11-7.41,22.1,22.1,0,0,1,3.16-1c2.26,0,4.51,0,6.77,0,8.56,2.63,18.83,8.51,21.2,17.08a14,14,0,0,1-.31,3.56c-1.19,5.33-5.6,9.3-9.57,12.73-7.49,6.46-14.33,12.94-19.46,21.51s-6.91,17.59-10,26.9c-4.06,12.06-17.23,15.7-28.82,15.35-10.55-.32-22.81-3.21-30.69-10.64-8.23-7.75-9.09-20.15-5.45-30.33,3.71-10.41,11.88-18.44,21.85-22.92,9.19-4.14,19.16-6.22,27.29-12.48a66.12,66.12,0,0,0,5.9-5.25c1-.76,2-1.56,2.95-2.42A32.86,32.86,0,0,0,164.51,401.42Zm4.55,127.12a103.4,103.4,0,0,1-17.71.29,70.58,70.58,0,0,1-9.84-3c-5.45-2.11-11.52-5.79-12.13-12.2s5.43-9.71,10.86-10.94c5.1-1.16,10.28-1.37,15.37-2.7,3.7-1,9-2.29,12.77-.64,6,6.83,11.55,18.7,5.13,26.05A12.14,12.14,0,0,1,169.06,528.54Zm1.46,9.06-1.22,0-1.3-.06c.75-.08,1.5-.18,2.25-.28A4.33,4.33,0,0,0,170.52,537.6Zm-65.81-44.1-.06.36c-.7-.8-1.4-1.6-2.12-2.4C103.25,492.15,104,492.83,104.71,493.5Zm6.36-172.23,2,1.44-.13.18a25.22,25.22,0,0,0-2.18-1.59A2.4,2.4,0,0,0,111.07,321.27ZM81,345.55c3.54-9.45,8.38-22.36,19.17-24.47a12.51,12.51,0,0,1,3.88.34c4.64,1.17,8,5,11.29,8.14,5.79,5.52,12.5,8.54,19.82,11.55,8.58,3.53,16.27,7.81,20.72,16.33a33.8,33.8,0,0,1,2.79,23.69c-4.25,16.72-21.3,27.59-38.06,27.24C102.69,408,84,395.77,78.22,378.43,74.61,367.57,77.12,356,81,345.55ZM43.37,479.24c0-.1,0-.19-.07-.29.07-.65.15-1.3.22-1.95,0,1.09,0,2.17.08,3.25C43.52,479.91,43.44,479.58,43.37,479.24ZM44,513.6l-.16-.23c0-.39.06-.78.07-1.18.15.45.31.91.47,1.36Zm45.48,16.33a44,44,0,0,1-15.24-4.59,83.59,83.59,0,0,1-13.55-10c-1-1-1.93-2.07-2.81-3.16-9.4-11.52-10.4-24.93-10.23-39.26.14-11.1.07-23-5.88-32.85-3.47-5.72-8.67-8.57-13.63-12.75-6-5-7.8-12.44-7.38-20a42.85,42.85,0,0,1,8.51-23.47c2.61-1.89,5.27-3.75,8-5.47s5.61-3.38,8.91-3.27c2.92.1,5.37,1.67,8,2.81a1.12,1.12,0,0,0,.88,0c.5.4,1,.82,1.43,1.24a39,39,0,0,1,10.32,18.56c3.45,13.84-2.82,26.74-2.94,40.5-.11,13.16,8.45,22.83,16.11,32.7q6.15,7.95,12.7,15.58c4.67,5.43,10,10.5,14.2,16.26,3.88,5.26,6.82,11.95,3.44,18.24C106.19,528.52,97.31,530.75,89.45,529.93Zm183.43,48c.45,9.11-6.1,16.71-13.69,20.81-8,4.33-17.69,6.06-26.71,6-8.52,0-21.75-1.51-26.66-9.76-4.37-7.33,3-16,1.86-23.86-.63-4.25-4.8-10.61-5.55-16a1.61,1.61,0,0,0,.21-.76c.5-12.56,21-8.56,28.54-6.91a82.12,82.12,0,0,1,24.53,9.68C263,561.72,272.4,568.14,272.88,577.94Zm-24.79-41.08c-11.51-2.83-23.25-5.13-35.13-5.55-9.3-.33-20.5,1.81-24.68,11.31-4.69,10.62,3.73,21.72,4.38,32.32A34.49,34.49,0,0,1,175,607c-13.23,7.39-28.24,4.27-41-2.51a1.59,1.59,0,0,0-.9-.18C117.42,594.18,103.71,578,110,558.19a25.49,25.49,0,0,1,7.79-12.3,57,57,0,0,1,6.19-3.72c13.35-5.48,32.28-.62,46.33-.39,7.91.13,16.24-1.79,19.73-9.69,4.18-9.45-.55-19.27-3.37-28.31-6.37-20.38.57-43.5,16.18-57.84,15.94-14.64,39.57-19.49,60.3-14.05,10.34,2.71,20.21,8,27.56,15.86,8.43,9,12,20.81,14.33,32.67,2.37,12.16,4,25.42-1.63,37a41.41,41.41,0,0,1-21.49,19.93C270.68,541.83,259.41,539.63,248.09,536.86ZM359.25,592.7c-3.14,10.58-7,21.43-14.28,29.91-6.62,7.7-15.9,12.69-26.23,11.93A34.22,34.22,0,0,1,293,619.06c-6.41-9.78-7.33-20.51-6.65-31.76a1.76,1.76,0,0,0,.07-.41c.05-.67.08-1.33.09-2,.3-4.56.33-9.12-1.27-13.48-1.08-2.94-2.76-5.47-3.28-8.61a17.27,17.27,0,0,1,.55-7.78c2.17-2.36,5.28-4,8-5.34a97.5,97.5,0,0,1,17.21-6.61c18.51-5.09,42.66-2.27,52.07,17C364.89,570.37,362.36,582.22,359.25,592.7Z"/><path class="cls-2" d="M84.84,566.44c-4.11-22.91-29.4-32.6-50.2-29.66a85,85,0,0,0-20.76,6,68.71,68.71,0,0,0-11.32,5.58l.74-1.21a1.83,1.83,0,0,0,0-1.95,9.06,9.06,0,0,0,.47-1.2,2.26,2.26,0,0,0-1.48-2.69,46.44,46.44,0,0,0,20.1-16.23c6.61-9.49,8.37-20.81,7.34-32.17-2-22.14-8.74-44-27.62-56.69a4.41,4.41,0,0,0,2.36-2c1.09.45,2.17.93,3.24,1.43,3.67,1.71,8.93-2.09,6.14-6.14a31.72,31.72,0,0,0-4.14-4.82c1.83-2.17,1.22-6.56-2.08-7.6L7.24,417A16,16,0,0,0,3.44,415l1.23-.74c3.89-2.42,1.83-7.83-1.65-8.39A27,27,0,0,0,7,399.32c5-11.81,4.26-27.13.46-39.18A50,50,0,0,0,1,346.94c2.59-.62,4.78-3.53,2.85-6.09-.44-.59-.86-1.18-1.29-1.77a4.68,4.68,0,0,0,1-6,3.72,3.72,0,0,0,1-4.1,50.6,50.6,0,0,1-3-21.42,3.79,3.79,0,0,0-1.35-3.31,25.48,25.48,0,0,0-9.36-25.92c-4.57-3.51-9,4.27-4.52,7.74,6.88,5.26,6.84,15.4,2.71,22.3-4.82,8.05-13.66,12.39-22.47,14.61-15.92,4-43,6.23-47.12-15.17.14-.7.27-1.41.39-2.12A3.66,3.66,0,0,0-76,302.56a27.84,27.84,0,0,0-6.66-24.41c-3-3.4-8.22.24-7.27,4.24,3.64,15.2,3.17,34.33-12.6,42.47a3.61,3.61,0,0,0-1.88,2.29,39.43,39.43,0,0,0-4,3.5,4,4,0,0,0-3.11.59.53.53,0,0,1-.1.06l-13.59,1a4.57,4.57,0,0,0-2.64,1q-11.23-4.8-22.46-9.63a4.37,4.37,0,0,0-3-.22l-2.06-1.35a3.56,3.56,0,0,0-1.41-2.46,50.5,50.5,0,0,1-19.33-37.65,4.09,4.09,0,0,0-4.36-4.2,4.56,4.56,0,0,0-6.12-1.42,4.6,4.6,0,0,0-5.55-1.21c-2.28-1-5.14-.45-5.55,2.63-.06.38-.1.76-.14,1.14h0s0,.07,0,.1a46.22,46.22,0,0,0,.09,11.15h0s0,.08,0,.13a68.16,68.16,0,0,1-5.9,23.89,4.31,4.31,0,0,0,0,3.75,104,104,0,0,1-3.41,10.33c-2.68,5.33-6.1,10.4-8.83,15.75a4.62,4.62,0,0,0-4.5,1.8c-9.86,12.89-29.07,11.27-40.72,2.08-9.34-7.36-17.05-20-17.91-32.47A78,78,0,0,1-277.35,303c1.2-5.14-6-7-7.79-2.15a36.51,36.51,0,0,0-1.69,18.57c0,.29,0,.58.06.87h0a3.81,3.81,0,0,0,.27,1.3A54.84,54.84,0,0,0-280,338.06a30.59,30.59,0,0,0-9.3-3.6,1.91,1.91,0,0,0-1.46,3.47c2,1.4,4,2.93,5.86,4.56a3.39,3.39,0,0,0,.37,3.75,105.84,105.84,0,0,1,8,12.05,3.94,3.94,0,0,0-1.26,4.42q2.65,8.93,5.3,17.84a4.78,4.78,0,0,0,1.13,2c0,1.36.06,2.73.1,4.09-.23,1.05-.44,2.11-.65,3.17a85.28,85.28,0,0,1-8.7,16.29c-3.49,5.1-4.52,9.37-4.37,15.57.11,4.8.61,9.92,3.14,14.12a13.15,13.15,0,0,0,6.11,5.18,4.28,4.28,0,0,0,.73,1.51c12.75,17.5,24.87,38.14,22.93,60.62-.81,9.29-4.17,18.77-10.16,26-7.12,8.58-16.83,10.73-26.51,15.16-3.13,1.43-1.61,6.78,1.76,6.52a45,45,0,0,0,24.77-9.68,4.74,4.74,0,0,0,3.91-.11c22.69-10.07,49.68-.74,59.7,21.22l2.72,7.88a4.47,4.47,0,0,0,2.43,2.74c.83,1.55,1.69,3.1,2.59,4.63,1.85,3.12,7.37,2.81,8.16-1.07a41.84,41.84,0,0,0,.83-8.46l.24.46a3.81,3.81,0,0,0,4.15,2.19c1.33,17.63,15.49,32.29,32.15,38.75,9.39,4.7,19.9,7.45,30.39,5.39a38,38,0,0,0,24.64-17.1,38.63,38.63,0,0,0,4-31.1c-.07-.24-.14-.49-.22-.73a3,3,0,0,0,.59-.16s0,.08,0,.12a1,1,0,0,0,1.69.33,2.21,2.21,0,0,0,1,.12c.81,1.7,3.71,1.53,4-.37,1.17,2.71,2.18,5.46,2,8.49-.27,4.65-2.76,8.88-3.36,13.48-2.42,18.53,24.13,21.8,37,20.78,15.79-1.24,35.41-8,38.8-25.71,1.47-7.67-1.32-14.14-6.06-19.49l4.09,3.37a2.5,2.5,0,0,0,2.61.26c.81,1.84,1.85,3.58,2.72,5.38a28.5,28.5,0,0,1,2.79,14.54,1.71,1.71,0,0,0,.17.88c-.66,10.66-.33,20.64,5,30.51,10.52,19.31,35.81,26.92,53.75,13,9.36-7.29,14.8-18.06,18.71-29C82.94,591,87,578.5,84.84,566.44Zm-361-145.34a4.55,4.55,0,0,0-.82-.24c0-.76,0-1.49,0-2.18,0-.32,0-.63.06-.94a17.1,17.1,0,0,0,.65,2.2,3.52,3.52,0,0,0,.8,1.25,2.5,2.5,0,0,0,.05.29C-275.69,421.36-275.94,421.22-276.2,421.1ZM-109,356.46a14.23,14.23,0,0,1-.36-1.67,44.92,44.92,0,0,1,.69-6.18,13.64,13.64,0,0,1,5.86-6.87c5.56-3.26,12.35-2.78,18.26-.79,5.17,1.75,9.78,4.92,15.32,5.53,4.64.52,8.88-1.1,12.94-3.2,10.68-5.54,21.21-11.9,33.7-8.53,11,3,19.54,11.49,24,21.74A60.26,60.26,0,0,1,5,391.07a27.17,27.17,0,0,1-18,21c-14.89,4-32.67,1.94-42.54-9.75-4.18-5.61-6.63-12.47-11.34-17.73a18.67,18.67,0,0,0-10-6c-5.67-1.21-11.34.61-17,.29-11.19-.63-15.2-10.87-15.46-21.09A1.08,1.08,0,0,0-109,356.46ZM-8.83,420.92l-1.47-.29,1.41-.4A4,4,0,0,0-8.83,420.92Zm-108.29-19.5a36.1,36.1,0,0,1,11-7.41,22.1,22.1,0,0,1,3.16-1q3.39,0,6.78,0c8.55,2.63,18.83,8.51,21.2,17.08a14,14,0,0,1-.32,3.56c-1.18,5.33-5.59,9.3-9.56,12.73-7.49,6.46-14.34,12.94-19.47,21.51s-6.9,17.59-10,26.9c-4,12.06-17.22,15.7-28.82,15.35-10.54-.32-22.8-3.21-30.69-10.64-8.23-7.75-9.08-20.15-5.45-30.33,3.72-10.41,11.89-18.44,21.85-22.92,9.2-4.14,19.16-6.22,27.3-12.48a64.64,64.64,0,0,0,5.89-5.25c1-.76,2-1.56,3-2.42A33.54,33.54,0,0,0-117.12,401.42Zm4.55,127.12a103.4,103.4,0,0,1-17.71.29,70.16,70.16,0,0,1-9.84-3c-5.45-2.11-11.52-5.79-12.14-12.2s5.43-9.71,10.86-10.94c5.11-1.16,10.28-1.37,15.37-2.7,3.7-1,9-2.29,12.77-.64,6,6.83,11.56,18.7,5.13,26.05A12.11,12.11,0,0,1-112.57,528.54Zm1.45,9.06-1.22,0-1.3-.06c.75-.08,1.5-.18,2.25-.28A4.33,4.33,0,0,0-111.12,537.6Zm-65.8-44.1a2.25,2.25,0,0,0-.06.36l-2.12-2.4C-178.39,492.15-177.65,492.83-176.92,493.5Zm6.36-172.23,2,1.44-.14.18a23.77,23.77,0,0,0-2.18-1.59A2.85,2.85,0,0,0-170.56,321.27Zm-30.05,24.28c3.54-9.45,8.38-22.36,19.16-24.47a12.48,12.48,0,0,1,3.88.34c4.64,1.17,8,5,11.29,8.14,5.79,5.52,12.51,8.54,19.82,11.55,8.58,3.53,16.28,7.81,20.72,16.33a33.74,33.74,0,0,1,2.79,23.69c-4.24,16.72-21.3,27.59-38.06,27.24-17.93-.37-36.64-12.6-42.4-29.94C-207,367.57-204.51,356-200.61,345.55Zm-37.66,133.69c0-.1,0-.19-.07-.29.08-.65.15-1.3.23-1.95,0,1.09,0,2.17.08,3.25Zm.61,34.36c-.06-.07-.11-.15-.17-.23,0-.39.06-.78.07-1.18.15.45.31.91.48,1.36Zm45.47,16.33a44.07,44.07,0,0,1-15.24-4.59,83.08,83.08,0,0,1-13.54-10c-1-1-1.93-2.07-2.82-3.16-9.4-11.52-10.4-24.93-10.22-39.26.13-11.1.06-23-5.89-32.85-3.47-5.72-8.67-8.57-13.62-12.75-6-5-7.8-12.44-7.39-20a42.86,42.86,0,0,1,8.52-23.47c2.61-1.89,5.26-3.75,7.95-5.47s5.62-3.38,8.91-3.27c2.92.1,5.38,1.67,7.95,2.81a1.12,1.12,0,0,0,.88,0c.5.4,1,.82,1.43,1.24a38.81,38.81,0,0,1,10.32,18.56c3.45,13.84-2.82,26.74-2.94,40.5-.11,13.16,8.46,22.83,16.11,32.7q6.17,7.95,12.71,15.58c4.66,5.43,9.94,10.5,14.19,16.26,3.89,5.26,6.82,11.95,3.45,18.24C-175.44,528.52-184.33,530.75-192.19,529.93Zm183.44,48c.44,9.11-6.1,16.71-13.7,20.81-8,4.33-17.68,6.06-26.71,6-8.52,0-21.75-1.51-26.66-9.76-4.37-7.33,3-16,1.86-23.86-.62-4.25-4.8-10.61-5.55-16a1.61,1.61,0,0,0,.21-.76c.51-12.56,21-8.56,28.54-6.91a82.12,82.12,0,0,1,24.53,9.68C-18.61,561.72-9.23,568.14-8.75,577.94Zm-24.8-41.08c-11.51-2.83-23.25-5.13-35.12-5.55-9.3-.33-20.5,1.81-24.69,11.31C-98,553.24-89.63,564.34-89,574.94A34.49,34.49,0,0,1-106.65,607c-13.22,7.39-28.24,4.27-41-2.51a1.62,1.62,0,0,0-.91-.18c-15.68-10.16-29.39-26.32-23.15-46.15a25.49,25.49,0,0,1,7.79-12.3,56.2,56.2,0,0,1,6.2-3.72c13.34-5.48,32.27-.62,46.32-.39,7.92.13,16.25-1.79,19.74-9.69,4.17-9.45-.55-19.27-3.38-28.31-6.37-20.38.58-43.5,16.19-57.84,15.93-14.64,39.56-19.49,60.29-14.05,10.35,2.71,20.21,8,27.56,15.86,8.44,9,12,20.81,14.33,32.67,2.38,12.16,4,25.42-1.62,37A41.45,41.45,0,0,1,.24,537.32C-10.95,541.83-22.22,539.63-33.55,536.86ZM77.61,592.7c-3.13,10.58-7,21.43-14.27,29.91-6.63,7.7-15.9,12.69-26.23,11.93a34.2,34.2,0,0,1-25.72-15.48C5,609.28,4.06,598.55,4.74,587.3a2.5,2.5,0,0,0,.07-.41c.05-.67.07-1.33.08-2,.31-4.56.33-9.12-1.27-13.48C2.54,568.47.86,565.94.35,562.8A17.27,17.27,0,0,1,.89,555c2.17-2.36,5.28-4,8-5.34a97.21,97.21,0,0,1,17.21-6.61c18.5-5.09,42.66-2.27,52.07,17C83.26,570.37,80.73,582.22,77.61,592.7Z"/><path class="cls-2" d="M648.12,284.81c-4.12-22.92-29.4-32.61-50.2-29.66a84,84,0,0,0-20.76,6,69.46,69.46,0,0,0-11.32,5.57c.24-.4.49-.8.73-1.21a1.81,1.81,0,0,0,0-1.94,9.78,9.78,0,0,0,.47-1.21,2.26,2.26,0,0,0-1.48-2.69,46.42,46.42,0,0,0,20.1-16.22c6.62-9.5,8.38-20.81,7.34-32.18-2-22.13-8.74-44-27.61-56.68a4.41,4.41,0,0,0,2.35-2c1.09.46,2.18.93,3.25,1.43,3.66,1.71,8.92-2.08,6.13-6.13a31.74,31.74,0,0,0-4.13-4.82c1.82-2.18,1.21-6.56-2.09-7.6l-.37-.12a16.13,16.13,0,0,0-3.81-2.08c.41-.24.83-.48,1.23-.73,3.89-2.43,1.83-7.84-1.65-8.4a27.15,27.15,0,0,0,3.93-6.49c5-11.82,4.27-27.14.46-39.19a49.73,49.73,0,0,0-6.4-13.19c2.59-.62,4.78-3.53,2.86-6.1-.44-.58-.87-1.18-1.3-1.76a4.68,4.68,0,0,0,1-6,3.74,3.74,0,0,0,1-4.11,50.74,50.74,0,0,1-3-21.42,3.76,3.76,0,0,0-1.35-3.3A25.5,25.5,0,0,0,554-3.3c-4.58-3.51-9,4.28-4.53,7.74,6.88,5.27,6.85,15.41,2.72,22.3-4.82,8.05-13.67,12.39-22.47,14.61-15.92,4-43,6.23-47.13-15.16.14-.71.28-1.41.39-2.12a3.68,3.68,0,0,0,4.22-3.15,27.86,27.86,0,0,0-6.66-24.4c-3-3.41-8.23.24-7.27,4.23C477,16,476.48,35.08,460.7,43.22a3.58,3.58,0,0,0-1.87,2.29,39.71,39.71,0,0,0-4.05,3.5,4,4,0,0,0-3.1.6l-.11.06-13.59,1a4.66,4.66,0,0,0-2.64,1l-22.46-9.62a4.41,4.41,0,0,0-3-.23l-2.07-1.34a3.54,3.54,0,0,0-1.41-2.47A50.5,50.5,0,0,1,387.09.42a4.1,4.1,0,0,0-4.35-4.2,4.58,4.58,0,0,0-6.13-1.42,4.6,4.6,0,0,0-5.55-1.21c-2.28-1-5.13-.45-5.55,2.63-.05.39-.1.77-.14,1.15h0a.28.28,0,0,1,0,.09,46.22,46.22,0,0,0,.09,11.15h0a.69.69,0,0,1,0,.13,68.1,68.1,0,0,1-5.9,23.89,4.38,4.38,0,0,0,0,3.75,101.48,101.48,0,0,1-3.41,10.33c-2.68,5.33-6.1,10.41-8.82,15.75a4.63,4.63,0,0,0-4.51,1.8c-9.86,12.9-29.07,11.28-40.72,2.09-9.34-7.37-17.05-20-17.91-32.47a76.94,76.94,0,0,1,1.72-12.47c1.19-5.15-6-7-7.8-2.15a36.6,36.6,0,0,0-1.69,18.57c0,.28,0,.57.06.86h.05a3.6,3.6,0,0,0,.28,1.31,54.26,54.26,0,0,0,6.41,16.43,31,31,0,0,0-9.31-3.6,1.91,1.91,0,0,0-1.46,3.47,74.11,74.11,0,0,1,5.87,4.57,3.39,3.39,0,0,0,.36,3.75,103.55,103.55,0,0,1,8,12,4,4,0,0,0-1.26,4.43q2.66,8.91,5.3,17.84a4.68,4.68,0,0,0,1.13,2c0,1.37.06,2.73.1,4.09-.23,1-.44,2.11-.65,3.17a84.43,84.43,0,0,1-8.7,16.29c-3.49,5.11-4.52,9.37-4.37,15.58.11,4.79.61,9.91,3.14,14.12a13.27,13.27,0,0,0,6.11,5.18,4.55,4.55,0,0,0,.73,1.51c12.75,17.5,24.87,38.13,22.93,60.62-.81,9.29-4.17,18.76-10.16,26-7.11,8.58-16.82,10.73-26.51,15.16-3.13,1.43-1.61,6.79,1.76,6.52A45,45,0,0,0,301,259.43a4.76,4.76,0,0,0,3.9-.12c22.69-10.06,49.69-.73,59.7,21.22q1.37,3.95,2.72,7.88a4.49,4.49,0,0,0,2.43,2.74c.84,1.56,1.69,3.11,2.59,4.63,1.85,3.13,7.37,2.81,8.16-1.06a41.91,41.91,0,0,0,.83-8.46l.24.45a3.83,3.83,0,0,0,4.16,2.19c1.32,17.63,15.49,32.3,32.15,38.76,9.39,4.69,19.89,7.45,30.39,5.39A38,38,0,0,0,472.94,316a38.66,38.66,0,0,0,4-31.11c-.07-.24-.15-.48-.23-.73a2.46,2.46,0,0,0,.59-.16s0,.08,0,.13a1,1,0,0,0,1.7.32,1.9,1.9,0,0,0,.94.12c.81,1.71,3.71,1.54,3.95-.36a18.35,18.35,0,0,1,2,8.49c-.27,4.65-2.76,8.87-3.36,13.47-2.42,18.53,24.13,21.8,37,20.79,15.79-1.25,35.41-8,38.8-25.72,1.47-7.67-1.31-14.14-6.06-19.48l4.09,3.36a2.48,2.48,0,0,0,2.61.26c.81,1.84,1.85,3.59,2.72,5.39a28.48,28.48,0,0,1,2.79,14.54,1.7,1.7,0,0,0,.17.87c-.66,10.67-.32,20.64,5.05,30.51,10.51,19.32,35.8,26.92,53.75,12.95,9.35-7.28,14.79-18.06,18.71-29C646.21,309.35,650.28,296.87,648.12,284.81Zm-361-145.34a3.36,3.36,0,0,0-.82-.24c0-.76,0-1.5,0-2.18,0-.32,0-.64.06-.94a20.08,20.08,0,0,0,.65,2.2,3.61,3.61,0,0,0,.8,1.25c0,.09,0,.19.05.29C287.59,139.72,287.34,139.58,287.07,139.47Zm167.2-64.64a12.55,12.55,0,0,1-.35-1.68A43.44,43.44,0,0,1,454.6,67a13.64,13.64,0,0,1,5.86-6.87c5.57-3.25,12.36-2.78,18.26-.78,5.17,1.74,9.78,4.92,15.32,5.53,4.65.51,8.88-1.11,12.94-3.21,10.68-5.54,21.21-11.89,33.7-8.53,11,3,19.54,11.5,24,21.74a60.28,60.28,0,0,1,3.59,34.58,27.18,27.18,0,0,1-18,21c-14.9,4-32.68,2-42.55-9.74-4.18-5.62-6.63-12.48-11.34-17.74a18.76,18.76,0,0,0-10-6c-5.66-1.2-11.34.62-17,.3-11.2-.64-15.2-10.87-15.47-21.1A1.06,1.06,0,0,0,454.27,74.83Zm100.17,64.45L553,139l1.41-.4A5.06,5.06,0,0,0,554.44,139.28Zm-108.29-19.5a36.63,36.63,0,0,1,11-7.41,22,22,0,0,1,3.15-1c2.26,0,4.52,0,6.78,0,8.55,2.63,18.83,8.51,21.2,17.08a13.54,13.54,0,0,1-.32,3.56c-1.18,5.33-5.59,9.31-9.56,12.73-7.49,6.46-14.33,12.95-19.47,21.52s-6.9,17.58-10,26.89c-4.05,12.06-17.22,15.7-28.82,15.35-10.54-.32-22.8-3.2-30.68-10.63-8.23-7.76-9.09-20.16-5.46-30.34,3.72-10.4,11.89-18.43,21.85-22.92,9.2-4.13,19.16-6.22,27.3-12.47a64.71,64.71,0,0,0,5.9-5.26c1-.76,2-1.56,2.94-2.42A31.88,31.88,0,0,0,446.15,119.78Zm4.55,127.13a104.18,104.18,0,0,1-17.71.28,70.16,70.16,0,0,1-9.84-3c-5.45-2.11-11.52-5.79-12.13-12.2s5.42-9.71,10.85-10.94c5.11-1.16,10.28-1.36,15.37-2.7,3.7-1,9-2.28,12.78-.64,6,6.84,11.55,18.7,5.12,26.05A12.13,12.13,0,0,1,450.7,246.91Zm1.45,9.05-1.22,0-1.3-.06c.75-.08,1.5-.17,2.25-.28Zm-65.8-44.09c0,.12,0,.24-.06.36-.7-.81-1.41-1.61-2.12-2.4C384.89,210.52,385.62,211.19,386.35,211.87Zm6.36-172.24,2,1.44-.14.19a20.53,20.53,0,0,0-2.18-1.59Zm-30,24.29c3.54-9.45,8.38-22.37,19.16-24.48a12.58,12.58,0,0,1,3.89.35c4.63,1.17,8,5,11.28,8.13,5.79,5.52,12.51,8.55,19.82,11.55,8.59,3.53,16.28,7.82,20.73,16.33a33.82,33.82,0,0,1,2.79,23.7c-4.25,16.71-21.31,27.58-38.07,27.23-17.93-.37-36.63-12.6-42.4-29.93C356.25,85.94,358.76,74.33,362.66,63.92ZM325,197.6l-.06-.29c.07-.65.14-1.3.22-1.95,0,1.09,0,2.17.08,3.25Zm.61,34.36c-.06-.07-.11-.15-.16-.22,0-.4.05-.79.06-1.19l.48,1.37Zm45.47,16.33a44.27,44.27,0,0,1-15.24-4.58,83,83,0,0,1-13.54-10q-1.49-1.53-2.82-3.15c-9.39-11.52-10.4-24.93-10.22-39.27.14-11.1.06-23-5.88-32.84-3.47-5.73-8.67-8.57-13.63-12.76-6-5-7.8-12.44-7.39-20a43,43,0,0,1,8.52-23.47c2.61-1.89,5.26-3.74,8-5.46s5.61-3.39,8.91-3.28c2.91.1,5.37,1.67,7.95,2.81a1.1,1.1,0,0,0,.87,0A17.34,17.34,0,0,1,338,97.59a38.9,38.9,0,0,1,10.32,18.55c3.44,13.84-2.82,26.75-2.94,40.5-.12,13.16,8.45,22.83,16.1,32.7q6.17,7.95,12.71,15.58c4.66,5.43,9.94,10.5,14.2,16.27,3.88,5.26,6.82,11.94,3.44,18.23C387.83,246.88,378.94,249.11,371.08,248.29Zm183.44,48c.44,9.11-6.1,16.71-13.7,20.82-8,4.32-17.68,6.05-26.71,6-8.52,0-21.74-1.52-26.66-9.77-4.37-7.33,3-16,1.86-23.85-.62-4.26-4.8-10.62-5.54-16a1.89,1.89,0,0,0,.21-.76c.5-12.56,21-8.55,28.53-6.91a82,82,0,0,1,24.54,9.69C544.66,280.08,554,286.51,554.52,296.3Zm-24.8-41.08c-11.5-2.82-23.24-5.13-35.12-5.55-9.3-.32-20.5,1.82-24.69,11.31-4.68,10.63,3.73,21.72,4.38,32.33a34.46,34.46,0,0,1-17.67,32.08c-13.22,7.39-28.24,4.27-41-2.5a1.54,1.54,0,0,0-.91-.19c-15.67-10.16-29.39-26.31-23.15-46.14a25.67,25.67,0,0,1,7.79-12.31,57.79,57.79,0,0,1,6.2-3.72c13.34-5.48,32.28-.61,46.32-.38,7.92.12,16.25-1.8,19.74-9.7,4.17-9.44-.55-19.26-3.38-28.31-6.36-20.37.58-43.5,16.19-57.84,15.93-14.64,39.57-19.48,60.29-14.05,10.35,2.71,20.22,8,27.57,15.86,8.43,9,12,20.81,14.32,32.67,2.38,12.17,4,25.43-1.62,37a41.46,41.46,0,0,1-21.49,19.94C552.32,260.19,541.05,258,529.72,255.22Zm111.17,55.85c-3.14,10.57-7,21.43-14.28,29.91-6.63,7.69-15.9,12.68-26.23,11.92a34.23,34.23,0,0,1-25.72-15.47c-6.41-9.78-7.33-20.51-6.65-31.77a1.67,1.67,0,0,0,.07-.4c0-.67.08-1.34.09-2,.3-4.57.32-9.13-1.28-13.49-1.08-2.94-2.75-5.47-3.27-8.61a17.13,17.13,0,0,1,.55-7.78c2.17-2.36,5.28-4,8-5.33a96.44,96.44,0,0,1,17.21-6.61c18.51-5.1,42.66-2.28,52.07,17C646.53,288.73,644,300.58,640.89,311.07Z"/><rect class="cls-3" width="281.64" height="281.64"/><g class="cls-4"><rect class="cls-1" x="-120.36" y="-68" width="281.64" height="281.64"/><rect class="cls-3" x="-120.36" y="-68" width="281.64" height="281.64"/></g><path class="cls-2" d="M143.91,77.69c1.14-.41,2.32-.65,3.44-1.18a1.43,1.43,0,0,0-.34-2.6c-4.35-.86-9.47,3.59-10.62,7.54-.38,1.34,1.37,1.88,2.11.89a23.22,23.22,0,0,1,1.8-2.2c.07.09.12.18.2.27,7.67,8.54,5.67,21.13-2.18,28.79-8.8,8.57-21,9.39-32.48,7a3.69,3.69,0,0,1,1-.75c1.58-.86.19-3.19-1.4-2.4a4.43,4.43,0,0,0-2.06,5.44.84.84,0,0,0,1.64-.22,3.24,3.24,0,0,1,.42-1.51c12.42,5,27.67,3.88,37.33-6.18C151.49,101.51,152.24,87.24,143.91,77.69Z"/><path class="cls-2" d="M106,90.27c-2.9-2.8-5.08-4.7-6.32-8.72-.86-2.79-.94-5.67-1.56-8.5-.75-3.42-3.35-7-7.37-6.07-4.38,1.07-3.9,6.61-3.48,10,.12,1,.3,1.88.5,2.8-.29,7.55,1.57,15.08,8.08,19.8,3,2.21,8.5,4.42,11.78,1.43C111.16,97.82,108.78,92.94,106,90.27Zm-8,6a.81.81,0,0,0-.12-.37,18.89,18.89,0,0,0,2.3,1.77A9.81,9.81,0,0,1,98,96.26Z"/><path class="cls-2" d="M129.48,66.58C125,58.94,115.6,54.66,106.87,54.45a6.52,6.52,0,0,0-6.8,2.06c-2,1.2-2.75,3.27-.33,6.27,2.82,3.49,8.61,2.54,12.37,4.51,3.09,1.63,5,4,7,6.86a12.29,12.29,0,0,0,3.82,4.19c2.47,1.4,5.79,1.29,7.49-1.25C132.46,74,131.19,69.52,129.48,66.58Z"/><path class="cls-2" d="M176.19,279.37a1.66,1.66,0,0,0-.79-.73,6.31,6.31,0,0,1,.76-.08c1.59-.07,2.14-2.67.4-2.94a5.84,5.84,0,0,0-6.51,5.7,1.08,1.08,0,0,0,2.12.28,4.3,4.3,0,0,1,.73-1.52,1.69,1.69,0,0,0,.23,1.08c5.17,9.32,8.68,20.62,3.25,30.68-4.94,9.16-16.32,11.25-25.7,8.87-10-2.54-18-9.78-25.19-16.73-4.45-4.29-9.51-8.57-9.27-15.36.19-5.51,3.34-10.32,5.32-15.29,0,0,0-.05,0-.07l.26.13a6.93,6.93,0,0,1,1.85,2c.7.91,2.47.45,2-.86-.84-2.61-4.23-4.09-6.79-3.53-1,.22-.7,1.63.23,1.68a6.13,6.13,0,0,1,1,.11A25.19,25.19,0,0,0,113,288.62c-.26,6.1,3,10.62,7.09,14.77,9,9.08,19.31,19,32.45,21.29,10.06,1.73,21.08-1.23,26.64-10.35C185.91,303.24,182.29,289.82,176.19,279.37Z"/><path class="cls-2" d="M140,270.66a4.71,4.71,0,0,0-1.18-3.75,3.54,3.54,0,0,0-5,0c-1.79,1.94-.21,4.69.81,6.61,1.44,2.74,1.67,4.95.12,7.62-.92,1.58-2.57,3-3.11,4.82-1.7,5.66,5.75,6.31,8.19,2.29C143,283.06,142.66,276.05,140,270.66Z"/><path class="cls-2" d="M160.33,278.07a11.57,11.57,0,0,0-3.24-5l-.41-.49a5.51,5.51,0,0,0-2.05-3.22c-3.36-2.45-7.32.36-6.63,4.31.34,2,1.8,3.3,3,4.8,3.74,4.6,3.94,9.28.48,14.15-2.41,3.4-7.07,7.62-3.2,11.9,3.07,3.39,8.33,2.44,11.16-.67C165.65,297.06,164.55,286.25,160.33,278.07Z"/><path class="cls-2" d="M294.2,201.2c-2.86-6.38-4-13.33-6.74-19.74A41.78,41.78,0,0,0,246.7,156.6c-12.48,1-24.75,7.5-31.59,18.12-.34-.26-.68-.52-1-.8-1.11-.92-3,.26-2.13,1.64a17.17,17.17,0,0,0,12.69,7.64c2.24.15,2.63-3.3.52-3.86a31.33,31.33,0,0,1-7.49-2.93c8.25-10.07,20.09-16.75,33.43-15.89a39,39,0,0,1,31,20c3.3,6.07,4.32,13,6.88,19.38,2.41,6,6.52,11.5,7.8,17.88,3.23,16-19.45,25-32.55,26.28.09-1.07.3-2.16.29-3.22a1.87,1.87,0,0,0-3.73,0c0,1.06.2,2.16.29,3.23a10.83,10.83,0,0,0,.5,3.06,1.12,1.12,0,0,0,2.15,0,8.31,8.31,0,0,0,.45-2.49c11.33,0,22.85-3.94,30.82-12.24C304.35,222.61,298.93,211.76,294.2,201.2Z"/><path class="cls-2" d="M223.32,199.72c-1.86-4.49-6.13-8-11.17-7.06-11.52,2.14-12.71,16.89-10.42,27.81.06,3.95,0,10.11,4.8,11.29,5.66,1.39,10.35-6.51,12.55-10.49C222.51,215.08,226.24,206.77,223.32,199.72Zm-17.76,10.79c.09.22.18.43.28.64-.14.36-.28.73-.42,1.12C205.46,211.68,205.5,211.1,205.56,210.51Z"/><path class="cls-2" d="M255.13,213.29c-7.86-1.5-16.06,1.92-22,6.93-.65.55-1.37,1.17-2.12,1.85a52.49,52.49,0,0,0-4.28,3.79c-2.35,2.31-9.07,8-6.85,11.76a3.34,3.34,0,0,0,.17.73c.71,1.94,2.78,2.74,4.64,3.09,7.7,1.46,16-2.21,22.67-5.6,5.3-2.68,13.73-6.17,15.62-12.51C264.64,217.87,260,214.21,255.13,213.29Z"/><path class="cls-2" d="M366.48,284.81c-4.12-22.92-29.4-32.61-50.2-29.66a84.11,84.11,0,0,0-20.76,6,69.46,69.46,0,0,0-11.32,5.57c.24-.4.49-.8.73-1.21a1.79,1.79,0,0,0,0-1.94,11.63,11.63,0,0,0,.46-1.21,2.24,2.24,0,0,0-1.48-2.69A46.36,46.36,0,0,0,304,243.45c6.62-9.5,8.38-20.81,7.34-32.18-2-22.13-8.74-44-27.61-56.68a4.43,4.43,0,0,0,2.36-2c1.09.46,2.17.93,3.24,1.43,3.66,1.71,8.93-2.08,6.13-6.13a31.19,31.19,0,0,0-4.13-4.82c1.83-2.18,1.22-6.56-2.09-7.6l-.37-.12a15.94,15.94,0,0,0-3.81-2.08l1.24-.73c3.89-2.43,1.83-7.84-1.65-8.4a27.81,27.81,0,0,0,3.93-6.49c5-11.82,4.26-27.14.45-39.19a49.43,49.43,0,0,0-6.4-13.19c2.59-.62,4.78-3.53,2.86-6.1-.44-.58-.86-1.18-1.3-1.76a4.68,4.68,0,0,0,1-6,3.71,3.71,0,0,0,1-4.11,50.89,50.89,0,0,1-3-21.42,3.75,3.75,0,0,0-1.34-3.3A25.51,25.51,0,0,0,272.4-3.3c-4.57-3.51-9,4.28-4.52,7.74,6.88,5.27,6.84,15.41,2.71,22.3-4.82,8.05-13.67,12.39-22.47,14.61-15.92,4-43,6.23-47.13-15.16.15-.71.28-1.41.39-2.12a3.68,3.68,0,0,0,4.22-3.15,27.83,27.83,0,0,0-6.66-24.4c-3-3.41-8.23.24-7.27,4.23,3.64,15.21,3.17,34.33-12.6,42.47a3.6,3.6,0,0,0-1.88,2.29,39.59,39.59,0,0,0-4,3.5,4,4,0,0,0-3.11.6l-.11.06-13.58,1a4.64,4.64,0,0,0-2.64,1l-22.47-9.62a4.41,4.41,0,0,0-3-.23l-2.06-1.34a3.58,3.58,0,0,0-1.41-2.47A50.51,50.51,0,0,1,105.45.42a4.09,4.09,0,0,0-4.35-4.2A4.57,4.57,0,0,0,95-5.2a4.6,4.6,0,0,0-5.55-1.21c-2.28-1-5.14-.45-5.56,2.63-.05.39-.09.77-.13,1.15h0v.09a46.22,46.22,0,0,0,.1,11.15h0c0,.05,0,.09,0,.13a68.09,68.09,0,0,1-5.89,23.89,4.31,4.31,0,0,0,0,3.75,104.08,104.08,0,0,1-3.42,10.33C71.86,52,68.44,57.12,65.71,62.46a4.64,4.64,0,0,0-4.51,1.8c-9.85,12.9-29.07,11.28-40.72,2.09-9.33-7.37-17-20-17.91-32.47A78.06,78.06,0,0,1,4.29,21.41c1.19-5.15-6-7-7.8-2.15A36.6,36.6,0,0,0-5.19,37.83c0,.28,0,.57.05.86h0A3.81,3.81,0,0,0-4.81,40,54.79,54.79,0,0,0,1.6,56.42a31,31,0,0,0-9.3-3.6,1.91,1.91,0,0,0-1.47,3.47A74.11,74.11,0,0,1-3.3,60.86a3.41,3.41,0,0,0,.36,3.75,103.63,103.63,0,0,1,8,12,4,4,0,0,0-1.27,4.43L9.12,98.92a4.56,4.56,0,0,0,1.12,2c0,1.37.06,2.73.1,4.09-.22,1-.44,2.11-.64,3.17A85,85,0,0,1,1,124.43C-2.5,129.54-3.52,133.8-3.38,140c.12,4.79.62,9.91,3.14,14.12a13.36,13.36,0,0,0,6.11,5.18,4.55,4.55,0,0,0,.73,1.51c12.76,17.5,24.88,38.13,22.93,60.62-.8,9.29-4.17,18.76-10.16,26C12.26,256,2.55,258.15-7.14,262.58c-3.12,1.43-1.6,6.79,1.77,6.52a45,45,0,0,0,24.77-9.67,4.76,4.76,0,0,0,3.9-.12C46,249.25,73,258.58,83,280.53q1.35,3.95,2.72,7.88a4.44,4.44,0,0,0,2.43,2.74c.83,1.56,1.69,3.11,2.59,4.63,1.85,3.13,7.37,2.81,8.15-1.06a41.92,41.92,0,0,0,.84-8.46l.24.45a3.81,3.81,0,0,0,4.15,2.19c1.32,17.63,15.49,32.3,32.15,38.76,9.39,4.69,19.9,7.45,30.39,5.39A38,38,0,0,0,191.31,316a38.65,38.65,0,0,0,4-31.11c-.07-.24-.15-.48-.22-.73a2.26,2.26,0,0,0,.58-.16s0,.08,0,.13a1,1,0,0,0,1.69.32,1.93,1.93,0,0,0,1,.12c.81,1.71,3.71,1.54,3.95-.36a18.61,18.61,0,0,1,2,8.49c-.27,4.65-2.76,8.87-3.36,13.47-2.43,18.53,24.12,21.8,37,20.79,15.78-1.25,35.4-8,38.8-25.72,1.47-7.67-1.32-14.14-6.07-19.48l4.09,3.36a2.48,2.48,0,0,0,2.61.26c.81,1.84,1.86,3.59,2.72,5.39a28.49,28.49,0,0,1,2.8,14.54,1.7,1.7,0,0,0,.17.87c-.66,10.67-.33,20.64,5,30.51,10.52,19.32,35.8,26.92,53.75,12.95,9.35-7.28,14.79-18.06,18.71-29C364.57,309.35,368.65,296.87,366.48,284.81ZM5.43,139.47a3.28,3.28,0,0,0-.81-.24c0-.76,0-1.5,0-2.18,0-.32,0-.64.07-.94a18,18,0,0,0,.64,2.2,3.76,3.76,0,0,0,.8,1.25,2.5,2.5,0,0,1,0,.29C6,139.72,5.7,139.58,5.43,139.47ZM172.64,74.83a11.2,11.2,0,0,1-.36-1.68A44.94,44.94,0,0,1,173,67a13.62,13.62,0,0,1,5.87-6.87c5.56-3.25,12.35-2.78,18.25-.78,5.18,1.74,9.79,4.92,15.32,5.53,4.65.51,8.89-1.11,12.95-3.21C236,56.1,246.56,49.75,259,53.11c11,3,19.54,11.5,24,21.74a60.28,60.28,0,0,1,3.59,34.58,27.16,27.16,0,0,1-18,21c-14.89,4-32.68,2-42.54-9.74-4.19-5.62-6.63-12.48-11.34-17.74a18.83,18.83,0,0,0-10-6c-5.67-1.2-11.34.62-17,.3-11.2-.64-15.2-10.87-15.46-21.1A1.08,1.08,0,0,0,172.64,74.83ZM272.8,139.28l-1.47-.29,1.41-.4Q272.76,139,272.8,139.28Zm-108.29-19.5a36.63,36.63,0,0,1,11-7.41,22.1,22.1,0,0,1,3.16-1c2.26,0,4.51,0,6.77,0,8.56,2.63,18.83,8.51,21.2,17.08a14,14,0,0,1-.31,3.56c-1.19,5.33-5.6,9.31-9.57,12.73-7.49,6.46-14.33,12.95-19.46,21.52s-6.91,17.58-10,26.89c-4.06,12.06-17.23,15.7-28.82,15.35-10.55-.32-22.81-3.2-30.69-10.63-8.23-7.76-9.09-20.16-5.45-30.34,3.71-10.4,11.88-18.43,21.85-22.92,9.19-4.13,19.16-6.22,27.29-12.47a64.71,64.71,0,0,0,5.9-5.26c1-.76,2-1.56,2.95-2.42A31.81,31.81,0,0,0,164.51,119.78Zm4.55,127.13a104.18,104.18,0,0,1-17.71.28,70.58,70.58,0,0,1-9.84-3c-5.45-2.11-11.52-5.79-12.13-12.2s5.43-9.71,10.86-10.94c5.1-1.16,10.28-1.36,15.37-2.7,3.7-1,9-2.28,12.77-.64,6,6.84,11.55,18.7,5.13,26.05A12.17,12.17,0,0,1,169.06,246.91Zm1.46,9.05-1.22,0c-.44,0-.87,0-1.3-.06.75-.08,1.5-.17,2.25-.28A3.18,3.18,0,0,0,170.52,256Zm-65.81-44.09-.06.36c-.7-.81-1.4-1.61-2.12-2.4C103.25,210.52,104,211.19,104.71,211.87Zm6.36-172.24,2,1.44c0,.06-.09.12-.13.19a21.6,21.6,0,0,0-2.18-1.59ZM81,63.92c3.54-9.45,8.38-22.37,19.17-24.48a12.52,12.52,0,0,1,3.88.35c4.64,1.17,8,5,11.29,8.13,5.79,5.52,12.5,8.55,19.82,11.55,8.58,3.53,16.27,7.82,20.72,16.33a33.82,33.82,0,0,1,2.79,23.7c-4.25,16.71-21.3,27.58-38.06,27.23-17.94-.37-36.64-12.6-42.41-29.93C74.61,85.94,77.12,74.33,81,63.92ZM43.37,197.6a2.46,2.46,0,0,1-.07-.29c.07-.65.15-1.3.22-1.95,0,1.09,0,2.17.08,3.25C43.52,198.28,43.44,197.94,43.37,197.6ZM44,232c0-.07-.1-.15-.16-.22,0-.4.06-.79.07-1.19.15.46.31.91.47,1.37Zm45.48,16.33a44.21,44.21,0,0,1-15.24-4.58,83.06,83.06,0,0,1-13.55-10c-1-1-1.93-2.07-2.81-3.15-9.4-11.52-10.4-24.93-10.23-39.27.14-11.1.07-23-5.88-32.84-3.47-5.73-8.67-8.57-13.63-12.76-6-5-7.8-12.44-7.38-20a42.9,42.9,0,0,1,8.51-23.47c2.61-1.89,5.27-3.74,8-5.46s5.61-3.39,8.91-3.28c2.92.1,5.37,1.67,8,2.81a1.13,1.13,0,0,0,.88,0c.5.39,1,.81,1.43,1.24a38.9,38.9,0,0,1,10.32,18.55c3.45,13.84-2.82,26.75-2.94,40.5-.11,13.16,8.45,22.83,16.11,32.7q6.15,7.95,12.7,15.58c4.67,5.43,10,10.5,14.2,16.27,3.88,5.26,6.82,11.94,3.44,18.23C106.19,246.88,97.31,249.11,89.45,248.29Zm183.43,48c.45,9.11-6.1,16.71-13.69,20.82-8,4.32-17.69,6.05-26.71,6-8.52,0-21.75-1.52-26.66-9.77-4.37-7.33,3-16,1.86-23.85-.63-4.26-4.8-10.62-5.55-16a1.61,1.61,0,0,0,.21-.76c.5-12.56,21-8.55,28.54-6.91a81.88,81.88,0,0,1,24.53,9.69C263,280.08,272.4,286.51,272.88,296.3Zm-24.79-41.08c-11.51-2.82-23.25-5.13-35.13-5.55-9.3-.32-20.5,1.82-24.68,11.31-4.69,10.63,3.73,21.72,4.38,32.33A34.48,34.48,0,0,1,175,325.39c-13.23,7.39-28.24,4.27-41-2.5a1.52,1.52,0,0,0-.9-.19c-15.68-10.16-29.39-26.31-23.15-46.14a25.53,25.53,0,0,1,7.79-12.31,58.65,58.65,0,0,1,6.19-3.72c13.35-5.48,32.28-.61,46.33-.38,7.91.12,16.24-1.8,19.73-9.7,4.18-9.44-.55-19.26-3.37-28.31-6.37-20.37.57-43.5,16.18-57.84,15.94-14.64,39.57-19.48,60.3-14.05,10.34,2.71,20.21,8,27.56,15.86,8.43,9,12,20.81,14.33,32.67,2.37,12.17,4,25.43-1.63,37a41.43,41.43,0,0,1-21.49,19.94C270.68,260.19,259.41,258,248.09,255.22Zm111.16,55.85c-3.14,10.57-7,21.43-14.28,29.91-6.62,7.69-15.9,12.68-26.23,11.92A34.23,34.23,0,0,1,293,337.43c-6.41-9.78-7.33-20.51-6.65-31.77a1.67,1.67,0,0,0,.07-.4c.05-.67.08-1.34.09-2,.3-4.57.33-9.13-1.27-13.49-1.08-2.94-2.76-5.47-3.28-8.61a17.27,17.27,0,0,1,.55-7.78c2.17-2.36,5.28-4,8-5.33a96.73,96.73,0,0,1,17.21-6.61c18.51-5.1,42.66-2.28,52.07,17C364.89,288.73,362.36,300.58,359.25,311.07Z"/><path class="cls-2" d="M103.7,223.37a12.09,12.09,0,0,0-8.06-1.8c-1,.11-1,1.56,0,1.53a11.81,11.81,0,0,1,2.89.29,1.9,1.9,0,0,0,0,.85c1.59,6.17,2.82,15-5.46,16.72-5,1-10.51-1.42-14.88-3.5-9.4-4.48-17.54-11.73-21.1-21.71a12.55,12.55,0,0,0,1.48-.31,1,1,0,0,0-.28-2,10.68,10.68,0,0,0-4.45.5.77.77,0,0,0,.42,1.49,9.09,9.09,0,0,1,1.48-.2,1,1,0,0,0,.85.58c2.39,14,14.71,23.67,27.8,27.62,5,1.5,10.9,1.92,15-1.75,4.77-4.21,4.51-11,3-16.72l.29.15A1,1,0,0,0,103.7,223.37Z"/><path class="cls-2" d="M72.77,217.82c-1.34-9.65-9.43-17.07-14.76-24.72-.83-1.19-3-.51-2.49,1.05,3,9.09,11.3,15.17,13,24.84C69,221.83,73.15,220.58,72.77,217.82Z"/><path class="cls-2" d="M81.51,205.79c-4-5.7-9.85-8.43-14.68-13.17A1.15,1.15,0,0,0,65,194c2.88,4.66,7.75,7.47,11.11,11.75a34,34,0,0,1,7.06,18.14c.27,2.77,4.55,2.87,4.41,0A34.76,34.76,0,0,0,81.51,205.79Z"/><path class="cls-2" d="M61.79,128.07c-.39.1-.75.17-1.11.23a2,2,0,0,0,.33-1c.67-11-3-22.51-15.38-24.25A16.08,16.08,0,0,0,27.4,120.46c-.29-.11-.57-.22-.85-.35-1-.47-1.88.94-.88,1.52A11.69,11.69,0,0,0,29.15,123c1.1.24,2.45.58,3.42-.15a1,1,0,0,0,0-1.6,6.18,6.18,0,0,0-2.74-.26,6.49,6.49,0,0,1-1.24-.17h0c.69-9,8.58-16.92,18-14.37,9.75,2.65,11,12.31,10.56,20.91a2,2,0,0,0,.1.73,6.94,6.94,0,0,1-1.69-.93c-.68-.5-1.67.49-1.17,1.17a6.79,6.79,0,0,0,8.4,2.09A1.27,1.27,0,0,0,61.79,128.07Z"/><path class="cls-2" d="M42.83,136.8c-1-2.71-6.79-14.09-10.69-7.84-1.38,2.21,0,5,1,7l.33.61c.7,4.62,3,9.52,6.73,11.45C46.71,151.39,43.54,138.69,42.83,136.8Z"/><path class="cls-2" d="M51.39,135.34a1.73,1.73,0,0,0-1.13.56.92.92,0,0,0-.61.63c-.46,1.73-.75,3.52-1.07,5.27a7.85,7.85,0,0,0,0,4.08c.71,2,3.15,3.14,4.92,1.77a4.47,4.47,0,0,0,1.43-2.79,30.76,30.76,0,0,0,.73-4.48C55.78,137.86,54.32,135,51.39,135.34Z"/><path class="cls-2" d="M166.24,172.17c-1.89-3.41-6.15-4.82-9.83-4.13-1,.18-.76,1.84.24,1.74a7.69,7.69,0,0,1,3.21.33,2.29,2.29,0,0,0-1.12,2.41c2.69,15.88-12.18,29.84-27.92,25-6.48-2-15.11-7.47-17.41-14.15-2.41-7,0-16.53,4.6-22.12,1,.62,2,1.39,3,2a1.06,1.06,0,0,0,1.28-1.66c-2.16-2.06-5.56-3.23-8.44-3.72-1-.17-1.42,1.26-.42,1.52a21.63,21.63,0,0,1,3,1c-6,4.83-8.07,15.16-6.86,22.39,1.46,8.79,11.48,15.78,19.35,18.53,19.08,6.65,36.82-10.15,34.25-29.16a12.58,12.58,0,0,1,1,1.15C165.07,174.59,167,173.56,166.24,172.17Z"/><path class="cls-2" d="M190.92,121.42c-7.25-6-18.4-4.36-23.95,3,0,0,0,0,0,0-.34-.21-.68-.42-1-.6a.67.67,0,0,0-.81,1c.6.63,1.3,1.17,1.94,1.77a20,20,0,0,0,2,1.73,1.16,1.16,0,0,0,1.58-.41,1.18,1.18,0,0,0-.42-1.57,19.09,19.09,0,0,0-2.12-1.3.67.67,0,0,1-.14-.09c5.17-5,14-6.87,20-2.08,8.61,6.88-2.36,15.1-7,20.06a1.81,1.81,0,0,0-.46,1.46,10.59,10.59,0,0,1-1.15-2.83.78.78,0,0,0-1.52.21,8,8,0,0,0,4.4,7.4,1.11,1.11,0,0,0,1.12-1.91,12.4,12.4,0,0,1-1.39-1.08,1.63,1.63,0,0,0,.82-.12C191.21,142.55,199.93,128.82,190.92,121.42Z"/><path class="cls-2" d="M155.53,135.1c-3.36,1-6.86,4.34-9.4,6.65a23.48,23.48,0,0,0-5.25,6.51c-1.63,1.68-2.9,3.67-2.22,6,2.48,8.37,14.19-3.75,16.67-6.48,2.1-2.31,5.33-5.49,5.3-8.85A3.88,3.88,0,0,0,155.53,135.1Z"/><path class="cls-2" d="M163.67,148.37c-.35.15-.68.32-1,.49a1.07,1.07,0,0,0-.75.24c-.35.31-.69.63-1,1a11.56,11.56,0,0,0-2.44,2.78,26.32,26.32,0,0,0-2.41,3.74c-1,1.89-.67,4.57,1.94,4.69,2.31.1,4.56-2.09,5.85-3.77a12.08,12.08,0,0,0,2.5-7.61A1.8,1.8,0,0,0,163.67,148.37Z"/><path class="cls-2" d="M274.22,96.25c-1-4.49-.09-7.47,1.79-11.45,2.22-4.73,2.75-8.93-.82-13.12-7.11-8.32-19.66-12.81-30.4-10.59a4.41,4.41,0,0,0,.72-.82,1.44,1.44,0,0,0-1.25-2.16c-3.68.41-4.3,6.24-1.76,8.34a.83.83,0,0,0,1.29-1,4,4,0,0,1-.12-2.94,1.51,1.51,0,0,1,.11-.22.55.55,0,0,0,.29.09c9.79.1,19.48,2.45,26.52,9.71,2.27,2.35,3.76,5,2.86,8.37-.63,2.32-2.33,4.36-3.14,6.63a17.63,17.63,0,0,0-.22,10.3c1.05,4.62,3.39,9.6.86,14.15-2.38,4.28-7.26,7.2-11.95,8.17-10.5,2.16-19.5-5.11-21.71-15.14a2,2,0,0,0-.25-.64c1.16-.54,2.35-1,3.51-1.54,1.87-.89.53-3.74-1.38-3.26a19.31,19.31,0,0,0-9.25,6.12,1.47,1.47,0,0,0-.21,1.7.92.92,0,0,0,.36.44l.14.07a1.44,1.44,0,0,0,1.42,0c.5-.39,1-.77,1.52-1.14,2.19,10.5,11.91,18.68,22.8,18.25,10.23-.41,21.63-8.22,20.34-19.49C276,102.05,274.86,99.22,274.22,96.25Z"/><path class="cls-2" d="M244.55,84.63c-2.07-1.63-7.84-4.86-10.09-2.09a1,1,0,0,0-.15,1.16c.78,1,1.6,1.13,2.84,1.51a12.65,12.65,0,0,1,4.45,2.36c2.69,2.24,3.71,5,4.35,8.32.47,2.44,4.17,1.78,4.22-.57C250.25,91.16,247.73,87.14,244.55,84.63Z"/><path class="cls-2" d="M254.18,77.31a34.73,34.73,0,0,0-16-2.24,1.18,1.18,0,0,0,0,2.35,53.38,53.38,0,0,1,14.36,3.86A2.16,2.16,0,1,0,254.18,77.31Z"/><path class="cls-2" d="M200.23,66a1.16,1.16,0,0,0-1.81.23,2.19,2.19,0,0,0-.2.63l-.13-.1c-8-5-19.09-1.21-21.75,8.06a13.91,13.91,0,0,0,13.2,17.7l-.24.62c-.39,1,1.2,1.63,1.7.72l1.23-2.23a5.34,5.34,0,0,0,1-2.29,1.12,1.12,0,0,0-1.9-.79,5.48,5.48,0,0,0-1.09,2.23l-.15.4c-7.81-.85-13.71-7.74-11.3-15.69s11.15-9.75,17.69-5.92a1.5,1.5,0,0,0,1.47.07,5,5,0,0,1-1.42,2.06c-.72.64.21,1.83,1,1.33a6.87,6.87,0,0,0,2.66-3C200.73,68.74,201.23,67.06,200.23,66Z"/><path class="cls-2" d="M204.05,84.83a19.55,19.55,0,0,0-3.25,0,16.47,16.47,0,0,1-3.32-.69c-1.33-.38-2.28,1.68-1,2.28a16.26,16.26,0,0,0,3.67,1.2,8.06,8.06,0,0,0,3.86.26A1.57,1.57,0,0,0,204.05,84.83Z"/><path class="cls-2" d="M208.64,79.21a51.92,51.92,0,0,1-9-.18c-1.37-.15-1.64,2.07-.32,2.38a37.38,37.38,0,0,0,9.31,1C210.71,82.38,210.69,79.08,208.64,79.21Z"/><path class="cls-2" d="M76.49,281.2c-2.7-4.82-6.95-6.86-12.19-7.46-2.21-.26-4-.08-5.92-1.62-1-.84-1.73-2-2.83-2.74A11.94,11.94,0,0,0,49,267.19c-6.57-.26-11.31,5.85-17.27,4.82-4.93-.84-9.69-1.86-14.44.52-4.58,2.29-6.75,6.82-6.85,11.8-.15,7,1.94,15.19,4.18,21.69a.67.67,0,0,0,1.3-.17c0-9.1-7.49-28.71,6.32-30.65,4.67-.66,9,2.32,13.49,1.54,2-.35,3.38-1.8,5-2.83A14.36,14.36,0,0,1,49,271.46c4.93.29,6.46,5.65,11,6.57,2.58.53,5-.41,7.55.63a10.79,10.79,0,0,1,6.12,6.82c2.07,6.74-1.82,13.66-6.11,18.56-2,2.35-6.26,4.79-7.28,8a19.46,19.46,0,0,1-2-1.84,1,1,0,0,0-1.62,1.25c1.88,3.33,6.55,6.52,10.51,6.08,1.69-.18,2.46-2.94.44-3.28-.86-.14-1.71-.21-2.54-.33a2.17,2.17,0,0,0,0-1.4c1.52-2,5.85-5.58,6.74-6.67A31.65,31.65,0,0,0,76.64,298C78.85,292.71,79.37,286.36,76.49,281.2Z"/><path class="cls-2" d="M253.92,279.35a3.91,3.91,0,0,0,.44-.26c1-.68.79-2.71-.69-2.54-3.07.36-5.93,3.16-7.49,5.68a1,1,0,0,0,1.5,1.15,24.3,24.3,0,0,1,2.17-1.77c3.91,3.41,6.76,6.86,6.76,12.33,0,5.69-3.42,10.85-8,14C239.7,314,221,313.32,218,300.65a9.64,9.64,0,0,1,4.41.71c1.4.56,2.41-1.8,1-2.45a9.2,9.2,0,0,0-9.94,1.26c-.79.73.22,1.74,1.07,1.38a11.17,11.17,0,0,1,1.39-.5c.91,16.09,25,16.95,35.26,9.94,5.62-3.85,9.77-10.09,9.83-17.05C261.08,288.46,258.57,282.43,253.92,279.35Z"/><path class="cls-2" d="M227.66,287.48c-2-5-6.7-10.67-12.46-11.25a.76.76,0,0,0-.87.85,2.23,2.23,0,0,0-1,1.72c-.17,1.46,1,2.74,1.82,3.82a43.12,43.12,0,0,0,3.63,4.35c2.12,2.2,5.05,4.2,8.07,2.47A1.74,1.74,0,0,0,227.66,287.48Z"/><path class="cls-2" d="M232.28,275.83c-1.63-1.81-3.63-3.31-6.14-2.6a1.89,1.89,0,0,0-1.29,2.28c.48,2.33,2.28,2.29,4,3.44,2.34,1.59,2.76,4.77,3.43,7.28,1.06,3.94,3,8.33,7.51,9a1.86,1.86,0,0,0,2.33-1.77A21.73,21.73,0,0,0,232.28,275.83Z"/><path class="cls-2" d="M25.88,31.55c-3.27.79-3.58,5.3-3.83,8.05a23.14,23.14,0,0,0,2.62,13.32,1.36,1.36,0,0,0,2.32,0,2,2,0,0,0,1.11-1.19C29.12,48.57,35.19,29.3,25.88,31.55Z"/><path class="cls-2" d="M40.7,36.69c-2.56,1.59-2.89,6-3.26,8.58q-.15,1.14-.24,2.25c-1.1,5-1.41,10.59,2.31,11.11,5.65.79,7.39-8.46,7.47-12.32C47,43.41,46.29,33.23,40.7,36.69Z"/><path class="cls-2" d="M159,221.66c.48-.92-.91-1.9-1.67-1.11a31,31,0,0,0-2.12,2.72c-.63.83.75,1.87,1.44,1.11.46-.51,1-1,1.42-1.53,5.83,2,12,8.2,8.28,14.64-4,6.86-14.28,1.87-18.79-1.63l0,0a1.16,1.16,0,0,0-.35-1.68c-1.19-.62-2.62.28-3.49,1.1a4.89,4.89,0,0,0-1.6,3.07,1.05,1.05,0,0,0,1.95.52,2.69,2.69,0,0,0,.16-.29,3.18,3.18,0,0,0,.3.36c6.1,6,20.57,10.3,25.54.72C174.67,230.81,167.14,223.48,159,221.66Z"/><path class="cls-2" d="M153,232.22a25.08,25.08,0,0,0-8.16-3.09.5.5,0,0,0-.26,1,57.76,57.76,0,0,1,7.63,3.5A.79.79,0,0,0,153,232.22Z"/><path class="cls-2" d="M160.92,230c-1.76-1.2-4.1-1.55-6.1-2.26-2.15-.77-4.23-1.73-6.4-2.45-.89-.29-1.71,1-.95,1.63a32.47,32.47,0,0,0,6.11,3.76c2,1,4.23,2.31,6.51,2.39C161.83,233.17,162.18,230.91,160.92,230Z"/><path class="cls-3" d="M139,46.6c-7-3.1-12.86-6-18.48-11.47S110.21,23,105,17c-.28-.32-.72.08-.56.42,6.33,13.29,17.66,30.2,33.69,32.29C139.81,50,140.52,47.26,139,46.6Z"/><path class="cls-3" d="M256.62,47.88c-.61-.07-.71.9-.14,1.06,22.46,6.08,38.95,25.91,39.14,49.38,0,2.8,4.34,2.81,4.35,0C300.08,72.74,282.21,50.94,256.62,47.88Z"/><path class="cls-3" d="M256.69,141.3c-24.56-5.77-55.87,6.08-66.28,30.38-.08.18.15.43.3.24,7.17-9.2,14.4-17.33,25.13-22.48,12.44-5.95,26.37-6.91,39.76-4.19C258.16,145.77,259.27,141.91,256.69,141.3Z"/><path class="cls-3" d="M119,138.09c-20.09,10.42-32.82,32.7-21.1,54.22.2.37.74.05.56-.33-9.81-20,5.36-41,22.78-50C123.77,140.61,121.52,136.77,119,138.09Z"/><path class="cls-3" d="M72.5,107.1A35.46,35.46,0,0,0,44.06,89.62c-.37,0-.46.59-.09.65,11.17,2,21.2,8.82,26.15,19.17,5.72,12,2.47,24.23-1.68,36.05-1,2.73,3.38,3.91,4.32,1.2C77.39,133.25,80.05,120.06,72.5,107.1Z"/><path class="cls-3" d="M25,182.49c-.21-.56-1.08-.35-.91.25C30,203.41,36.9,229.12,21,247.28c-1.89,2.17,1.29,5.36,3.17,3.17C41.31,230.64,33.32,204.26,25,182.49Z"/><path class="cls-3" d="M106.13,252.22c-20.16,4.18-38-5.79-52-19.52-.41-.4-1,.19-.62.62,13,15.9,32.67,27.54,53.77,23C110,255.76,108.82,251.67,106.13,252.22Z"/><path class="cls-3" d="M182,231.78c-.21-2.6-4.29-2.64-4.1,0,.56,7.77.36,17.62-9.08,19.58-1,.22-.74,1.72.24,1.78C180.37,253.77,182.69,240.22,182,231.78Z"/><path class="cls-3" d="M80.87,34.74c-4,18-12.4,33.88-31.45,38.79-.51.13-.42,1,.12.93C68.73,72.3,81.1,53.25,84.69,35.79,85.2,33.31,81.43,32.24,80.87,34.74Z"/><path class="cls-3" d="M166.84,84.82c-.31-2.12-3.48-1.2-3.2.88,1.23,9,2.52,18.72-4.1,26.07a.85.85,0,0,0,1.2,1.21C169,105.9,168.28,94.61,166.84,84.82Z"/><path class="cls-3" d="M223.64,46.57c-13.56-.32-22.29-9.28-25.55-21.91a.67.67,0,0,0-1.31.18c.13,14.36,13.09,25,26.86,25.27C225.91,50.16,225.91,46.63,223.64,46.57Z"/><path class="cls-3" d="M65.88,258.07a26.84,26.84,0,0,0-18.39-4.23c-.62.09-.46,1.1.15,1.09,6-.13,11.89,1.38,16.62,5.24C65.76,261.4,67.51,259.09,65.88,258.07Z"/><path class="cls-3" d="M28.05,150.93c-6.92-6-10.62-12.77-10.8-22.1,0-.51-.84-.67-.94-.12-1.6,9,2.35,19.26,10,24.42C27.66,154,29.25,152,28.05,150.93Z"/><path class="cls-3" d="M104.44,129.25A30.13,30.13,0,0,1,91,123a.54.54,0,0,0-.76.76,22.21,22.21,0,0,0,13.94,7.8C105.44,131.74,105.73,129.51,104.44,129.25Z"/><path class="cls-3" d="M288.1,123.93a21.59,21.59,0,0,1-17,10.79.72.72,0,0,0,0,1.43,21.11,21.11,0,0,0,19.63-10.67A1.54,1.54,0,0,0,288.1,123.93Z"/><path class="cls-3" d="M175.85,53.77c-5.59,1-9.64,7.12-10.35,12.39-.09.66.87,1,1,.28a13.9,13.9,0,0,1,3.8-6.87c1.9-1.87,4-2.66,6.38-3.73C178,55.27,177,53.55,175.85,53.77Z"/><path class="cls-3" d="M275.07,23.32c.26,4.24-1.9,7.35-4.74,10.22a.53.53,0,0,0,.64.83c4.08-2,6-6.78,6.35-11C277.44,21.88,275,21.86,275.07,23.32Z"/><path class="cls-2" d="M12.56,201.2c-2.86-6.38-4-13.33-6.74-19.74A41.34,41.34,0,0,0-4.44,167.27a41.17,41.17,0,0,0-30.5-10.67c-12.47,1-24.75,7.5-31.58,18.12-.35-.26-.69-.52-1-.8-1.1-.92-3,.26-2.13,1.64A17.18,17.18,0,0,0-57,183.2c2.24.15,2.64-3.3.52-3.86a31.09,31.09,0,0,1-7.48-2.93c8.24-10.07,20.08-16.75,33.42-15.89a39,39,0,0,1,31,20c3.31,6.07,4.32,13,6.89,19.38,2.4,6,6.51,11.5,7.8,17.88,3.22,16-19.45,25-32.55,26.28a32,32,0,0,0,.28-3.22,1.86,1.86,0,0,0-3.72,0,29.57,29.57,0,0,0,.29,3.23,10.82,10.82,0,0,0,.49,3.06,1.13,1.13,0,0,0,2.16,0,9,9,0,0,0,.45-2.49c11.32,0,22.85-3.94,30.81-12.24C22.72,222.61,17.29,211.76,12.56,201.2Z"/><path class="cls-2" d="M84.84,284.81c-4.11-22.92-29.4-32.61-50.2-29.66a84.11,84.11,0,0,0-20.76,6,69.46,69.46,0,0,0-11.32,5.57l.74-1.21a1.81,1.81,0,0,0,0-1.94,9.78,9.78,0,0,0,.47-1.21,2.26,2.26,0,0,0-1.48-2.69,46.42,46.42,0,0,0,20.1-16.22c6.61-9.5,8.37-20.81,7.34-32.18-2-22.13-8.74-44-27.62-56.68a4.43,4.43,0,0,0,2.36-2c1.09.46,2.17.93,3.24,1.43,3.67,1.71,8.93-2.08,6.14-6.13a31.24,31.24,0,0,0-4.14-4.82c1.83-2.18,1.22-6.56-2.08-7.6l-.38-.12a16.07,16.07,0,0,0-3.8-2.08l1.23-.73c3.89-2.43,1.83-7.84-1.65-8.4A27.15,27.15,0,0,0,7,117.69c5-11.82,4.26-27.14.46-39.19A50,50,0,0,0,1,65.31c2.59-.62,4.78-3.53,2.85-6.1C3.42,58.63,3,58,2.57,57.45a4.68,4.68,0,0,0,1-6,3.74,3.74,0,0,0,1-4.11,50.58,50.58,0,0,1-3-21.42,3.76,3.76,0,0,0-1.35-3.3A25.49,25.49,0,0,0-9.24-3.3c-4.57-3.51-9,4.28-4.52,7.74C-6.88,9.71-6.92,19.85-11,26.74c-4.82,8.05-13.66,12.39-22.47,14.61-15.92,4-43,6.23-47.12-15.16.14-.71.27-1.41.39-2.12A3.67,3.67,0,0,0-76,20.92,27.83,27.83,0,0,0-82.7-3.48c-3-3.41-8.22.24-7.27,4.23,3.64,15.21,3.17,34.33-12.6,42.47a3.63,3.63,0,0,0-1.88,2.29,40.7,40.7,0,0,0-4,3.5,4,4,0,0,0-3.11.6.53.53,0,0,0-.1.06l-13.59,1a4.64,4.64,0,0,0-2.64,1l-22.46-9.62a4.44,4.44,0,0,0-3-.23l-2.06-1.34a3.58,3.58,0,0,0-1.41-2.47A50.47,50.47,0,0,1-176.18.42a4.1,4.1,0,0,0-4.36-4.2,4.56,4.56,0,0,0-6.12-1.42,4.6,4.6,0,0,0-5.55-1.21c-2.28-1-5.14-.45-5.55,2.63-.06.39-.1.77-.14,1.15h0s0,.06,0,.09a46.22,46.22,0,0,0,.09,11.15h0c0,.05,0,.09,0,.13a68.1,68.1,0,0,1-5.9,23.89,4.31,4.31,0,0,0,0,3.75,104,104,0,0,1-3.41,10.33c-2.68,5.33-6.1,10.41-8.83,15.75a4.62,4.62,0,0,0-4.5,1.8c-9.86,12.9-29.07,11.28-40.72,2.09-9.34-7.37-17.05-20-17.91-32.47a78,78,0,0,1,1.71-12.47c1.2-5.15-6-7-7.79-2.15a36.49,36.49,0,0,0-1.69,18.57c0,.28,0,.57.06.86h0a3.81,3.81,0,0,0,.27,1.31A54.79,54.79,0,0,0-280,56.42a30.85,30.85,0,0,0-9.3-3.6,1.91,1.91,0,0,0-1.46,3.47c2,1.41,4,2.93,5.86,4.57a3.39,3.39,0,0,0,.37,3.75,104.85,104.85,0,0,1,8,12,4,4,0,0,0-1.26,4.43q2.65,8.91,5.3,17.84a4.68,4.68,0,0,0,1.13,2c0,1.37.06,2.73.1,4.09-.23,1-.44,2.11-.65,3.17a85,85,0,0,1-8.7,16.29c-3.49,5.11-4.52,9.37-4.37,15.58.11,4.79.61,9.91,3.14,14.12a13.27,13.27,0,0,0,6.11,5.18,4.36,4.36,0,0,0,.73,1.51c12.75,17.5,24.87,38.13,22.93,60.62-.81,9.29-4.17,18.76-10.16,26-7.12,8.58-16.83,10.73-26.51,15.16-3.13,1.43-1.61,6.79,1.76,6.52a45,45,0,0,0,24.77-9.67,4.79,4.79,0,0,0,3.91-.12c22.69-10.06,49.68-.73,59.7,21.22.91,2.63,1.81,5.26,2.72,7.88a4.47,4.47,0,0,0,2.43,2.74c.83,1.56,1.69,3.11,2.59,4.63,1.85,3.13,7.37,2.81,8.16-1.06a41.91,41.91,0,0,0,.83-8.46l.24.45a3.81,3.81,0,0,0,4.15,2.19c1.33,17.63,15.49,32.3,32.15,38.76,9.39,4.69,19.9,7.45,30.39,5.39A38,38,0,0,0-90.33,316a38.65,38.65,0,0,0,4-31.11c-.07-.24-.14-.48-.22-.73A2.46,2.46,0,0,0-86,284s0,.08,0,.13a1,1,0,0,0,1.69.32,1.94,1.94,0,0,0,1,.12c.81,1.71,3.71,1.54,4-.36,1.17,2.7,2.18,5.45,2,8.49-.27,4.65-2.76,8.87-3.36,13.47-2.42,18.53,24.13,21.8,37,20.79,15.79-1.25,35.41-8,38.8-25.72,1.47-7.67-1.32-14.14-6.06-19.48l4.09,3.36a2.48,2.48,0,0,0,2.61.26c.81,1.84,1.85,3.59,2.72,5.39a28.48,28.48,0,0,1,2.79,14.54,1.7,1.7,0,0,0,.17.87c-.66,10.67-.33,20.64,5,30.51C17,356,42.26,363.56,60.2,349.59c9.36-7.28,14.8-18.06,18.71-29C82.94,309.35,87,296.87,84.84,284.81Zm-361-145.34a3.36,3.36,0,0,0-.82-.24c0-.76,0-1.5,0-2.18,0-.32,0-.64.06-.94a18.1,18.1,0,0,0,.65,2.2,3.61,3.61,0,0,0,.8,1.25c0,.09,0,.19.05.29C-275.69,139.72-275.94,139.58-276.2,139.47ZM-109,74.83a14.39,14.39,0,0,1-.36-1.68,44.92,44.92,0,0,1,.69-6.18,13.64,13.64,0,0,1,5.86-6.87c5.56-3.25,12.35-2.78,18.26-.78,5.17,1.74,9.78,4.92,15.32,5.53,4.64.51,8.88-1.11,12.94-3.21,10.68-5.54,21.21-11.89,33.7-8.53,11,3,19.54,11.5,24,21.74A60.27,60.27,0,0,1,5,109.43a27.16,27.16,0,0,1-18,21c-14.89,4-32.67,2-42.54-9.74-4.18-5.62-6.63-12.48-11.34-17.74a18.79,18.79,0,0,0-10-6c-5.67-1.2-11.34.62-17,.3-11.19-.64-15.2-10.87-15.46-21.1A1.06,1.06,0,0,0-109,74.83ZM-8.83,139.28-10.3,139l1.41-.4A3.85,3.85,0,0,0-8.83,139.28Zm-108.29-19.5a36.46,36.46,0,0,1,11-7.41,22.1,22.1,0,0,1,3.16-1c2.26,0,4.52,0,6.78,0,8.55,2.63,18.83,8.51,21.2,17.08a14,14,0,0,1-.32,3.56c-1.18,5.33-5.59,9.31-9.56,12.73-7.49,6.46-14.34,12.95-19.47,21.52s-6.9,17.58-10,26.89c-4,12.06-17.22,15.7-28.82,15.35-10.54-.32-22.8-3.2-30.69-10.63-8.23-7.76-9.08-20.16-5.45-30.34,3.72-10.4,11.89-18.43,21.85-22.92,9.2-4.13,19.16-6.22,27.3-12.47a63.29,63.29,0,0,0,5.89-5.26c1-.76,2-1.56,3-2.42A32.45,32.45,0,0,0-117.12,119.78Zm4.55,127.13a104.18,104.18,0,0,1-17.71.28,70.16,70.16,0,0,1-9.84-3c-5.45-2.11-11.52-5.79-12.14-12.2s5.43-9.71,10.86-10.94c5.11-1.16,10.28-1.36,15.37-2.7,3.7-1,9-2.28,12.77-.64,6,6.84,11.56,18.7,5.13,26.05A12.13,12.13,0,0,1-112.57,246.91Zm1.45,9.05-1.22,0-1.3-.06c.75-.08,1.5-.17,2.25-.28A3.18,3.18,0,0,0-111.12,256Zm-65.8-44.09a2.25,2.25,0,0,0-.06.36c-.7-.81-1.41-1.61-2.12-2.4C-178.39,210.52-177.65,211.19-176.92,211.87Zm6.36-172.24,2,1.44-.14.19a20.53,20.53,0,0,0-2.18-1.59Zm-30.05,24.29c3.54-9.45,8.38-22.37,19.16-24.48a12.49,12.49,0,0,1,3.88.35c4.64,1.17,8,5,11.29,8.13,5.79,5.52,12.51,8.55,19.82,11.55,8.58,3.53,16.28,7.82,20.72,16.33a33.77,33.77,0,0,1,2.79,23.7c-4.24,16.71-21.3,27.58-38.06,27.23-17.93-.37-36.64-12.6-42.4-29.93C-207,85.94-204.51,74.33-200.61,63.92ZM-238.27,197.6c0-.09,0-.19-.07-.29.08-.65.15-1.3.23-1.95,0,1.09,0,2.17.08,3.25Zm.61,34.36-.17-.22c0-.4.06-.79.07-1.19.15.46.31.91.48,1.37Zm45.47,16.33a44.27,44.27,0,0,1-15.24-4.58,82.56,82.56,0,0,1-13.54-10q-1.49-1.53-2.82-3.15c-9.4-11.52-10.4-24.93-10.22-39.27.13-11.1.06-23-5.89-32.84-3.47-5.73-8.67-8.57-13.62-12.76-6-5-7.8-12.44-7.39-20a42.92,42.92,0,0,1,8.52-23.47c2.61-1.89,5.26-3.74,7.95-5.46s5.62-3.39,8.91-3.28c2.92.1,5.38,1.67,7.95,2.81a1.13,1.13,0,0,0,.88,0c.5.39,1,.81,1.43,1.24a38.74,38.74,0,0,1,10.32,18.55c3.45,13.84-2.82,26.75-2.94,40.5-.11,13.16,8.46,22.83,16.11,32.7q6.17,7.95,12.71,15.58c4.66,5.43,9.94,10.5,14.19,16.27,3.89,5.26,6.82,11.94,3.45,18.23C-175.44,246.88-184.33,249.11-192.19,248.29Zm183.44,48c.44,9.11-6.1,16.71-13.7,20.82-8,4.32-17.68,6.05-26.71,6-8.52,0-21.75-1.52-26.66-9.77-4.37-7.33,3-16,1.86-23.85-.62-4.26-4.8-10.62-5.55-16a1.61,1.61,0,0,0,.21-.76c.51-12.56,21-8.55,28.54-6.91a81.88,81.88,0,0,1,24.53,9.69C-18.61,280.08-9.23,286.51-8.75,296.3Zm-24.8-41.08c-11.51-2.82-23.25-5.13-35.12-5.55-9.3-.32-20.5,1.82-24.69,11.31C-98,271.61-89.63,282.7-89,293.31a34.48,34.48,0,0,1-17.67,32.08c-13.22,7.39-28.24,4.27-41-2.5a1.55,1.55,0,0,0-.91-.19c-15.68-10.16-29.39-26.31-23.15-46.14a25.53,25.53,0,0,1,7.79-12.31,57.79,57.79,0,0,1,6.2-3.72c13.34-5.48,32.27-.61,46.32-.38,7.92.12,16.25-1.8,19.74-9.7,4.17-9.44-.55-19.26-3.38-28.31-6.37-20.37.58-43.5,16.19-57.84,15.93-14.64,39.56-19.48,60.29-14.05C-8.19,153,1.67,158.26,9,166.11c8.44,9,12,20.81,14.33,32.67,2.38,12.17,4,25.43-1.62,37A41.46,41.46,0,0,1,.24,255.69C-10.95,260.19-22.22,258-33.55,255.22ZM77.61,311.07c-3.13,10.57-7,21.43-14.27,29.91-6.63,7.69-15.9,12.68-26.23,11.92a34.22,34.22,0,0,1-25.72-15.47C5,327.65,4.06,316.92,4.74,305.66a2.38,2.38,0,0,0,.07-.4c.05-.67.07-1.34.08-2,.31-4.57.33-9.13-1.27-13.49C2.54,286.83.86,284.3.35,281.16a17.27,17.27,0,0,1,.54-7.78c2.17-2.36,5.28-4,8-5.33a96.44,96.44,0,0,1,17.21-6.61c18.5-5.1,42.66-2.28,52.07,17C83.26,288.73,80.73,300.58,77.61,311.07Z"/><path class="cls-3" d="M-25,47.88c-.61-.07-.71.9-.14,1.06C-2.7,55,13.8,74.85,14,98.32c0,2.8,4.35,2.81,4.36,0C18.44,72.74.58,50.94-25,47.88Z"/><path class="cls-3" d="M6.47,123.93a21.62,21.62,0,0,1-17,10.79.72.72,0,0,0,0,1.43A21.1,21.1,0,0,0,9.12,125.48,1.54,1.54,0,0,0,6.47,123.93Z"/><path class="cls-2" d="M648.12,3.17c-4.12-22.91-29.4-32.61-50.2-29.66a84.85,84.85,0,0,0-20.76,6,69.46,69.46,0,0,0-11.32,5.57l.73-1.2a1.82,1.82,0,0,0,0-1.95,9.06,9.06,0,0,0,.47-1.2,2.27,2.27,0,0,0-1.48-2.7,46.35,46.35,0,0,0,20.1-16.22C592.27-47.69,594-59,593-70.36c-2-22.14-8.74-44-27.61-56.69a4.39,4.39,0,0,0,2.35-2c1.09.45,2.18.92,3.25,1.42,3.66,1.72,8.92-2.08,6.13-6.13a32.23,32.23,0,0,0-4.13-4.82c1.82-2.17,1.21-6.56-2.09-7.6l-.37-.12a16.09,16.09,0,0,0-3.81-2.07l1.23-.74c3.89-2.43,1.83-7.83-1.65-8.39a27,27,0,0,0,3.93-6.5c5-11.81,4.27-27.13.46-39.19a49.73,49.73,0,0,0-6.4-13.19c2.59-.62,4.78-3.53,2.86-6.09l-1.3-1.77a4.68,4.68,0,0,0,1-6,3.73,3.73,0,0,0,1-4.11,50.71,50.71,0,0,1-3-21.42,3.78,3.78,0,0,0-1.35-3.3A25.5,25.5,0,0,0,554-284.93c-4.58-3.51-9,4.27-4.53,7.74,6.88,5.26,6.85,15.4,2.72,22.3-4.82,8-13.67,12.38-22.47,14.61-15.92,4-43,6.23-47.13-15.17.14-.7.28-1.41.39-2.12a3.68,3.68,0,0,0,4.22-3.14,27.87,27.87,0,0,0-6.66-24.41c-3-3.41-8.23.24-7.27,4.23,3.64,15.21,3.17,34.33-12.61,42.47a3.6,3.6,0,0,0-1.87,2.3,39.61,39.61,0,0,0-4.05,3.49,4.06,4.06,0,0,0-3.1.6l-.11.06-13.59,1a4.53,4.53,0,0,0-2.64,1q-11.23-4.82-22.46-9.63a4.41,4.41,0,0,0-3-.23l-2.07-1.34a3.54,3.54,0,0,0-1.41-2.47,50.5,50.5,0,0,1-19.33-37.65,4.1,4.1,0,0,0-4.35-4.2,4.58,4.58,0,0,0-6.13-1.42,4.61,4.61,0,0,0-5.55-1.21c-2.28-1-5.13-.45-5.55,2.64-.05.38-.1.76-.14,1.14h0a.31.31,0,0,1,0,.1,46.14,46.14,0,0,0,.09,11.14h0a.5.5,0,0,1,0,.12,68.1,68.1,0,0,1-5.9,23.89,4.38,4.38,0,0,0,0,3.75,100.67,100.67,0,0,1-3.41,10.33c-2.68,5.34-6.1,10.41-8.82,15.76a4.63,4.63,0,0,0-4.51,1.8c-9.86,12.89-29.07,11.27-40.72,2.08-9.34-7.36-17.05-20-17.91-32.47a76.94,76.94,0,0,1,1.72-12.47c1.19-5.15-6-7-7.8-2.15a36.62,36.62,0,0,0-1.69,18.57c0,.29,0,.58.06.86h.05a3.59,3.59,0,0,0,.28,1.3,54.16,54.16,0,0,0,6.41,16.43,31.28,31.28,0,0,0-9.31-3.6,1.91,1.91,0,0,0-1.46,3.47c2,1.41,4,2.94,5.87,4.57a3.38,3.38,0,0,0,.36,3.75,103.67,103.67,0,0,1,8,12.05,4,4,0,0,0-1.26,4.42q2.66,8.92,5.3,17.84a4.78,4.78,0,0,0,1.13,2c0,1.36.06,2.72.1,4.09-.23,1-.44,2.1-.65,3.17a84.64,84.64,0,0,1-8.7,16.28c-3.49,5.11-4.52,9.38-4.37,15.58.11,4.8.61,9.92,3.14,14.12a13.27,13.27,0,0,0,6.11,5.18,4.55,4.55,0,0,0,.73,1.51c12.75,17.5,24.87,38.13,22.93,60.62-.81,9.29-4.17,18.76-10.16,26C293.9-25.64,284.19-23.48,274.5-19c-3.13,1.43-1.61,6.78,1.76,6.52A45,45,0,0,0,301-22.21a4.8,4.8,0,0,0,3.9-.11c22.69-10.07,49.69-.74,59.7,21.22q1.37,3.93,2.72,7.88a4.47,4.47,0,0,0,2.43,2.73c.84,1.56,1.69,3.11,2.59,4.64,1.85,3.12,7.37,2.8,8.16-1.07a41.91,41.91,0,0,0,.83-8.46l.24.46a3.81,3.81,0,0,0,4.16,2.18c1.32,17.64,15.49,32.3,32.15,38.76,9.39,4.7,19.89,7.45,30.39,5.39a38,38,0,0,0,24.63-17.1,38.63,38.63,0,0,0,4-31.1c-.07-.25-.15-.49-.23-.73a2.48,2.48,0,0,0,.59-.17s0,.09,0,.13a1,1,0,0,0,1.7.33,2.16,2.16,0,0,0,.94.12c.81,1.7,3.71,1.53,3.95-.37,1.18,2.71,2.18,5.46,2,8.49-.27,4.65-2.76,8.88-3.36,13.47-2.42,18.54,24.13,21.81,37,20.79,15.79-1.24,35.41-8,38.8-25.71,1.47-7.68-1.31-14.14-6.06-19.49l4.09,3.37A2.5,2.5,0,0,0,559,3.7c.81,1.83,1.85,3.58,2.72,5.38a28.5,28.5,0,0,1,2.79,14.54,1.71,1.71,0,0,0,.17.88c-.66,10.66-.32,20.64,5.05,30.5,10.51,19.32,35.8,26.93,53.75,13,9.35-7.28,14.79-18.05,18.71-29C646.21,27.71,650.28,15.23,648.12,3.17Zm-361-145.34a3.86,3.86,0,0,0-.82-.24c0-.76,0-1.49,0-2.18,0-.32,0-.63.06-.94a19.45,19.45,0,0,0,.65,2.2,3.52,3.52,0,0,0,.8,1.25,2.93,2.93,0,0,0,.05.29C287.59-141.91,287.34-142,287.07-142.17Zm167.2-64.64a12.55,12.55,0,0,1-.35-1.68,43.44,43.44,0,0,1,.68-6.18,13.62,13.62,0,0,1,5.86-6.86c5.57-3.26,12.36-2.78,18.26-.79,5.17,1.75,9.78,4.92,15.32,5.53,4.65.51,8.88-1.1,12.94-3.21,10.68-5.53,21.21-11.89,33.7-8.52,11,3,19.54,11.49,24,21.74a60.23,60.23,0,0,1,3.59,34.57,27.19,27.19,0,0,1-18,21c-14.9,4-32.68,1.94-42.55-9.75-4.18-5.61-6.63-12.47-11.34-17.73a18.64,18.64,0,0,0-10-6c-5.66-1.21-11.34.61-17,.29-11.2-.64-15.2-10.87-15.47-21.09A1.08,1.08,0,0,0,454.27-206.81Zm100.17,64.46c-.49-.11-1-.2-1.47-.3l1.41-.39A5.36,5.36,0,0,0,554.44-142.35Zm-108.29-19.5a36.48,36.48,0,0,1,11-7.42,22,22,0,0,1,3.15-1c2.26,0,4.52,0,6.78,0,8.55,2.63,18.83,8.5,21.2,17.08a13.58,13.58,0,0,1-.32,3.56c-1.18,5.33-5.59,9.3-9.56,12.72-7.49,6.47-14.33,13-19.47,21.52s-6.9,17.59-10,26.89C444.81-76.42,431.64-72.78,420-73.13c-10.54-.32-22.8-3.21-30.68-10.64-8.23-7.75-9.09-20.16-5.46-30.34,3.72-10.4,11.89-18.43,21.85-22.91,9.2-4.14,19.16-6.22,27.3-12.48a66.12,66.12,0,0,0,5.9-5.25c1-.76,2-1.56,2.94-2.42A32.94,32.94,0,0,0,446.15-161.85ZM450.7-34.73a103.12,103.12,0,0,1-17.71.28,70.24,70.24,0,0,1-9.84-3c-5.45-2.11-11.52-5.79-12.13-12.2s5.42-9.71,10.85-10.94c5.11-1.16,10.28-1.37,15.37-2.7,3.7-1,9-2.29,12.78-.64,6,6.83,11.55,18.69,5.12,26A12.13,12.13,0,0,1,450.7-34.73Zm1.45,9-1.22,0-1.3-.07c.75-.08,1.5-.17,2.25-.28Zm-65.8-44.09c0,.12,0,.24-.06.36l-2.12-2.4C384.89-71.12,385.62-70.45,386.35-69.77ZM392.71-242l2,1.43-.14.19a22,22,0,0,0-2.18-1.59A2.58,2.58,0,0,0,392.71-242Zm-30,24.28c3.54-9.45,8.38-22.36,19.16-24.47a12.27,12.27,0,0,1,3.89.34c4.63,1.17,8,5,11.28,8.13,5.79,5.53,12.51,8.55,19.82,11.56,8.59,3.52,16.28,7.81,20.73,16.33a33.8,33.8,0,0,1,2.79,23.69c-4.25,16.71-21.31,27.58-38.07,27.24-17.93-.38-36.63-12.6-42.4-29.94C356.25-195.7,358.76-207.31,362.66-217.72ZM325-84l-.06-.29c.07-.65.14-1.3.22-2,0,1.09,0,2.17.08,3.25Zm.61,34.36-.16-.23c0-.39.05-.79.06-1.19l.48,1.37C325.86-49.7,325.73-49.7,325.61-49.67Zm45.47,16.33a44.29,44.29,0,0,1-15.24-4.59,83.51,83.51,0,0,1-13.54-10c-1-1-1.93-2.07-2.82-3.16-9.39-11.52-10.4-24.93-10.22-39.27.14-11.09.06-23-5.88-32.84-3.47-5.72-8.67-8.57-13.63-12.75-6-5-7.8-12.44-7.39-20a42.93,42.93,0,0,1,8.52-23.46c2.61-1.89,5.26-3.75,8-5.47s5.61-3.38,8.91-3.27c2.91.1,5.37,1.66,7.95,2.8a1.06,1.06,0,0,0,.87,0c.51.4,1,.81,1.44,1.24a38.93,38.93,0,0,1,10.32,18.56c3.44,13.83-2.82,26.74-2.94,40.49-.12,13.17,8.45,22.84,16.1,32.71q6.17,7.94,12.71,15.58c4.66,5.43,9.94,10.5,14.2,16.26,3.88,5.26,6.82,12,3.44,18.24C387.83-34.75,378.94-32.52,371.08-33.34Zm183.44,48c.44,9.11-6.1,16.71-13.7,20.82-8,4.33-17.68,6.05-26.71,6-8.52,0-21.74-1.51-26.66-9.76-4.37-7.34,3-16,1.86-23.86-.62-4.25-4.8-10.61-5.54-16a2,2,0,0,0,.21-.77c.5-12.56,21-8.55,28.53-6.91A82.58,82.58,0,0,1,537.05-6.1C544.66-1.55,554,4.87,554.52,14.66Zm-24.8-41.08c-11.5-2.82-23.24-5.12-35.12-5.54-9.3-.33-20.5,1.81-24.69,11.3-4.68,10.63,3.73,21.73,4.38,32.33a34.47,34.47,0,0,1-17.67,32.09c-13.22,7.39-28.24,4.26-41-2.51a1.54,1.54,0,0,0-.91-.19C399.06,30.9,385.34,14.75,391.58-5.08a25.59,25.59,0,0,1,7.79-12.3,54.69,54.69,0,0,1,6.2-3.72c13.34-5.48,32.28-.62,46.32-.39,7.92.13,16.25-1.8,19.74-9.7,4.17-9.44-.55-19.26-3.38-28.31-6.36-20.37.58-43.5,16.19-57.84,15.93-14.64,39.57-19.48,60.29-14,10.35,2.71,20.22,8,27.57,15.86,8.43,9,12,20.82,14.32,32.67,2.38,12.17,4,25.43-1.62,37a41.42,41.42,0,0,1-21.49,19.94C552.32-21.44,541.05-23.64,529.72-26.42ZM640.89,29.43c-3.14,10.57-7,21.43-14.28,29.91C620,67,610.71,72,600.38,71.26a34.21,34.21,0,0,1-25.72-15.47C568.25,46,567.33,35.28,568,24a1.76,1.76,0,0,0,.07-.41c0-.67.08-1.34.09-2,.3-4.56.32-9.13-1.28-13.48-1.08-2.95-2.75-5.48-3.27-8.61a17.18,17.18,0,0,1,.55-7.79c2.17-2.35,5.28-4,8-5.33a97.21,97.21,0,0,1,17.21-6.61c18.51-5.09,42.66-2.27,52.07,17C646.53,7.09,644,19,640.89,29.43Z"/><path class="cls-2" d="M176.19-2.27A1.71,1.71,0,0,0,175.4-3a6.31,6.31,0,0,1,.76-.08c1.59-.07,2.14-2.67.4-2.94a5.84,5.84,0,0,0-6.51,5.7,1.08,1.08,0,0,0,2.12.29,4.14,4.14,0,0,1,.73-1.52,1.66,1.66,0,0,0,.23,1.07c5.17,9.33,8.68,20.62,3.25,30.68-4.94,9.16-16.32,11.25-25.7,8.87-10-2.53-18-9.77-25.19-16.72C121,18.06,116,13.77,116.22,7c.19-5.51,3.34-10.31,5.32-15.29,0,0,0,0,0-.07l.26.13a7.06,7.06,0,0,1,1.85,2c.7.91,2.47.46,2-.86-.84-2.6-4.23-4.09-6.79-3.52-1,.21-.7,1.63.23,1.67.33,0,.66.06,1,.11A25.22,25.22,0,0,0,113,7c-.26,6.11,3,10.63,7.09,14.77,9,9.08,19.31,19,32.45,21.29,10.06,1.73,21.08-1.22,26.64-10.34C185.91,21.6,182.29,8.18,176.19-2.27Z"/><path class="cls-2" d="M140-11a4.7,4.7,0,0,0-1.18-3.75,3.53,3.53,0,0,0-5,0c-1.79,1.93-.21,4.68.81,6.61,1.44,2.73,1.67,4.94.12,7.61-.92,1.59-2.57,3-3.11,4.82-1.7,5.66,5.75,6.31,8.19,2.3C143,1.43,142.66-5.58,140-11Z"/><path class="cls-2" d="M160.33-3.56a11.6,11.6,0,0,0-3.24-5L156.68-9a5.51,5.51,0,0,0-2.05-3.22c-3.36-2.45-7.32.36-6.63,4.31.34,2,1.8,3.3,3,4.8,3.74,4.6,3.94,9.29.48,14.16-2.41,3.39-7.07,7.62-3.2,11.89,3.07,3.4,8.33,2.44,11.16-.67C165.65,15.43,164.55,4.61,160.33-3.56Z"/><path class="cls-2" d="M366.48,3.17c-4.12-22.91-29.4-32.61-50.2-29.66a85,85,0,0,0-20.76,6,69.46,69.46,0,0,0-11.32,5.57l.73-1.2a1.81,1.81,0,0,0,0-1.95,10.66,10.66,0,0,0,.46-1.2,2.25,2.25,0,0,0-1.48-2.7A46.29,46.29,0,0,0,304-38.19c6.62-9.5,8.38-20.81,7.34-32.17-2-22.14-8.74-44-27.61-56.69a4.41,4.41,0,0,0,2.36-2c1.09.45,2.17.92,3.24,1.42,3.66,1.72,8.93-2.08,6.13-6.13a31.66,31.66,0,0,0-4.13-4.82c1.83-2.17,1.22-6.56-2.09-7.6l-.37-.12a15.9,15.9,0,0,0-3.81-2.07l1.24-.74c3.89-2.43,1.83-7.83-1.65-8.39a27.67,27.67,0,0,0,3.93-6.5c5-11.81,4.26-27.13.45-39.19a49.43,49.43,0,0,0-6.4-13.19c2.59-.62,4.78-3.53,2.86-6.09l-1.3-1.77a4.68,4.68,0,0,0,1-6,3.7,3.7,0,0,0,1-4.11,50.87,50.87,0,0,1-3-21.42,3.77,3.77,0,0,0-1.34-3.3,25.5,25.5,0,0,0-9.36-25.92c-4.57-3.51-9,4.27-4.52,7.74,6.88,5.26,6.84,15.4,2.71,22.3-4.82,8-13.67,12.38-22.47,14.61-15.92,4-43,6.23-47.13-15.17.15-.7.28-1.41.39-2.12a3.68,3.68,0,0,0,4.22-3.14,27.84,27.84,0,0,0-6.66-24.41c-3-3.41-8.23.24-7.27,4.23,3.64,15.21,3.17,34.33-12.6,42.47a3.62,3.62,0,0,0-1.88,2.3,39.5,39.5,0,0,0-4,3.49,4.08,4.08,0,0,0-3.11.6l-.11.06-13.58,1a4.5,4.5,0,0,0-2.64,1l-22.47-9.63a4.41,4.41,0,0,0-3-.23l-2.06-1.34a3.58,3.58,0,0,0-1.41-2.47,50.51,50.51,0,0,1-19.34-37.65,4.1,4.1,0,0,0-4.35-4.2A4.57,4.57,0,0,0,95-286.84,4.62,4.62,0,0,0,89.43-288c-2.28-1-5.14-.45-5.56,2.64-.05.38-.09.76-.13,1.14h0v.1a46.14,46.14,0,0,0,.1,11.14h0s0,.08,0,.12A68.09,68.09,0,0,1,77.94-249a4.31,4.31,0,0,0,0,3.75,103.23,103.23,0,0,1-3.42,10.33c-2.67,5.34-6.09,10.41-8.82,15.76a4.64,4.64,0,0,0-4.51,1.8c-9.85,12.89-29.07,11.27-40.72,2.08-9.33-7.36-17-20-17.91-32.47a78.06,78.06,0,0,1,1.72-12.47c1.19-5.15-6-7-7.8-2.15a36.62,36.62,0,0,0-1.68,18.57c0,.29,0,.58.05.86h0a3.81,3.81,0,0,0,.28,1.3A54.68,54.68,0,0,0,1.6-225.22a31.22,31.22,0,0,0-9.3-3.6,1.91,1.91,0,0,0-1.47,3.47c2,1.41,4,2.94,5.87,4.57A3.4,3.4,0,0,0-2.94-217a103.75,103.75,0,0,1,8,12.05,4,4,0,0,0-1.27,4.42l5.31,17.84a4.66,4.66,0,0,0,1.12,2c0,1.36.06,2.72.1,4.09-.22,1-.44,2.1-.64,3.17A85.24,85.24,0,0,1,1-157.21c-3.49,5.11-4.51,9.38-4.37,15.58.12,4.8.62,9.92,3.14,14.12a13.36,13.36,0,0,0,6.11,5.18,4.55,4.55,0,0,0,.73,1.51c12.76,17.5,24.88,38.13,22.93,60.62-.8,9.29-4.17,18.76-10.16,26C12.26-25.64,2.55-23.48-7.14-19c-3.12,1.43-1.6,6.78,1.77,6.52A45,45,0,0,0,19.4-22.21a4.8,4.8,0,0,0,3.9-.11C46-32.39,73-23.06,83-1.1q1.35,3.93,2.72,7.88a4.42,4.42,0,0,0,2.43,2.73q1.25,2.34,2.59,4.64c1.85,3.12,7.37,2.8,8.15-1.07a41.92,41.92,0,0,0,.84-8.46l.24.46a3.79,3.79,0,0,0,4.15,2.18c1.32,17.64,15.49,32.3,32.15,38.76,9.39,4.7,19.9,7.45,30.39,5.39a38,38,0,0,0,24.64-17.1,38.63,38.63,0,0,0,4-31.1c-.07-.25-.15-.49-.22-.73a2.28,2.28,0,0,0,.58-.17s0,.09,0,.13a1,1,0,0,0,1.69.33,2.19,2.19,0,0,0,1,.12c.81,1.7,3.71,1.53,3.95-.37,1.17,2.71,2.17,5.46,2,8.49-.27,4.65-2.76,8.88-3.36,13.47-2.43,18.54,24.12,21.81,37,20.79,15.78-1.24,35.4-8,38.8-25.71,1.47-7.68-1.32-14.14-6.07-19.49l4.09,3.37a2.5,2.5,0,0,0,2.61.26c.81,1.83,1.86,3.58,2.72,5.38a28.51,28.51,0,0,1,2.8,14.54,1.71,1.71,0,0,0,.17.88c-.66,10.66-.33,20.64,5,30.5,10.52,19.32,35.8,26.93,53.75,13,9.35-7.28,14.79-18.05,18.71-29C364.57,27.71,368.65,15.23,366.48,3.17ZM5.43-142.17a3.78,3.78,0,0,0-.81-.24c0-.76,0-1.49,0-2.18,0-.32,0-.63.07-.94a17.51,17.51,0,0,0,.64,2.2,3.66,3.66,0,0,0,.8,1.25,2.93,2.93,0,0,1,0,.29C6-141.91,5.7-142,5.43-142.17Zm167.21-64.64a11.2,11.2,0,0,1-.36-1.68,44.94,44.94,0,0,1,.68-6.18,13.59,13.59,0,0,1,5.87-6.86c5.56-3.26,12.35-2.78,18.25-.79,5.18,1.75,9.79,4.92,15.32,5.53,4.65.51,8.89-1.1,12.95-3.21,10.67-5.53,21.21-11.89,33.69-8.52,11,3,19.54,11.49,24,21.74a60.23,60.23,0,0,1,3.59,34.57,27.17,27.17,0,0,1-18,21c-14.89,4-32.68,1.94-42.54-9.75-4.19-5.61-6.63-12.47-11.34-17.73a18.71,18.71,0,0,0-10-6c-5.67-1.21-11.34.61-17,.29-11.2-.64-15.2-10.87-15.46-21.09A1.09,1.09,0,0,0,172.64-206.81ZM272.8-142.35c-.48-.11-1-.2-1.47-.3q.72-.18,1.41-.39Q272.76-142.69,272.8-142.35Zm-108.29-19.5a36.48,36.48,0,0,1,11-7.42,22.1,22.1,0,0,1,3.16-1c2.26,0,4.51,0,6.77,0,8.56,2.63,18.83,8.5,21.2,17.08a14,14,0,0,1-.31,3.56c-1.19,5.33-5.6,9.3-9.57,12.72-7.49,6.47-14.33,13-19.46,21.52s-6.91,17.59-10,26.89C163.17-76.42,150-72.78,138.41-73.13c-10.55-.32-22.81-3.21-30.69-10.64-8.23-7.75-9.09-20.16-5.45-30.34,3.71-10.4,11.88-18.43,21.85-22.91,9.19-4.14,19.16-6.22,27.29-12.48a66.12,66.12,0,0,0,5.9-5.25c1-.76,2-1.56,2.95-2.42A32.86,32.86,0,0,0,164.51-161.85Zm4.55,127.12a103.12,103.12,0,0,1-17.71.28,70.66,70.66,0,0,1-9.84-3c-5.45-2.11-11.52-5.79-12.13-12.2s5.43-9.71,10.86-10.94c5.1-1.16,10.28-1.37,15.37-2.7,3.7-1,9-2.29,12.77-.64,6,6.83,11.55,18.69,5.13,26A12.17,12.17,0,0,1,169.06-34.73Zm1.46,9-1.22,0-1.3-.07c.75-.08,1.5-.17,2.25-.28A3.18,3.18,0,0,0,170.52-25.68ZM104.71-69.77l-.06.36c-.7-.8-1.4-1.6-2.12-2.4C103.25-71.12,104-70.45,104.71-69.77ZM111.07-242l2,1.43c0,.07-.09.13-.13.19a23.27,23.27,0,0,0-2.18-1.59A2.4,2.4,0,0,0,111.07-242ZM81-217.72c3.54-9.45,8.38-22.36,19.17-24.47a12.21,12.21,0,0,1,3.88.34c4.64,1.17,8,5,11.29,8.13,5.79,5.53,12.5,8.55,19.82,11.56,8.58,3.52,16.27,7.81,20.72,16.33a33.8,33.8,0,0,1,2.79,23.69c-4.25,16.71-21.3,27.58-38.06,27.24-17.94-.38-36.64-12.6-42.41-29.94C74.61-195.7,77.12-207.31,81-217.72ZM43.37-84c0-.1,0-.2-.07-.29.07-.65.15-1.3.22-2,0,1.09,0,2.17.08,3.25C43.52-83.36,43.44-83.7,43.37-84ZM44-49.67l-.16-.23c0-.39.06-.79.07-1.19.15.46.31.92.47,1.37C44.23-49.7,44.1-49.7,44-49.67ZM89.45-33.34a44.22,44.22,0,0,1-15.24-4.59,83.59,83.59,0,0,1-13.55-10c-1-1-1.93-2.07-2.81-3.16C48.45-62.59,47.45-76,47.62-90.34c.14-11.09.07-23-5.88-32.84-3.47-5.72-8.67-8.57-13.63-12.75-6-5-7.8-12.44-7.38-20a42.84,42.84,0,0,1,8.51-23.46c2.61-1.89,5.27-3.75,8-5.47s5.61-3.38,8.91-3.27c2.92.1,5.37,1.66,8,2.8a1.09,1.09,0,0,0,.88,0c.5.4,1,.81,1.43,1.24a38.93,38.93,0,0,1,10.32,18.56c3.45,13.83-2.82,26.74-2.94,40.49-.11,13.17,8.45,22.84,16.11,32.71Q86-84.35,92.56-76.71c4.67,5.43,10,10.5,14.2,16.26,3.88,5.26,6.82,12,3.44,18.24C106.19-34.75,97.31-32.52,89.45-33.34Zm183.43,48c.45,9.11-6.1,16.71-13.69,20.82-8,4.33-17.69,6.05-26.71,6-8.52,0-21.75-1.51-26.66-9.76-4.37-7.34,3-16,1.86-23.86-.63-4.25-4.8-10.61-5.55-16a1.69,1.69,0,0,0,.21-.77c.5-12.56,21-8.55,28.54-6.91A82.41,82.41,0,0,1,255.41-6.1C263-1.55,272.4,4.87,272.88,14.66ZM248.09-26.42C236.58-29.24,224.84-31.54,213-32c-9.3-.33-20.5,1.81-24.68,11.3C183.59-10,192,1.07,192.66,11.67A34.49,34.49,0,0,1,175,43.76c-13.23,7.39-28.24,4.26-41-2.51a1.52,1.52,0,0,0-.9-.19C117.42,30.9,103.71,14.75,110-5.08a25.44,25.44,0,0,1,7.79-12.3,55.45,55.45,0,0,1,6.19-3.72c13.35-5.48,32.28-.62,46.33-.39,7.91.13,16.24-1.8,19.73-9.7,4.18-9.44-.55-19.26-3.37-28.31-6.37-20.37.57-43.5,16.18-57.84,15.94-14.64,39.57-19.48,60.3-14,10.34,2.71,20.21,8,27.56,15.86,8.43,9,12,20.82,14.33,32.67,2.37,12.17,4,25.43-1.63,37a41.39,41.39,0,0,1-21.49,19.94C270.68-21.44,259.41-23.64,248.09-26.42ZM359.25,29.43c-3.14,10.57-7,21.43-14.28,29.91C338.35,67,329.07,72,318.74,71.26A34.21,34.21,0,0,1,293,55.79C286.61,46,285.69,35.28,286.37,24a1.76,1.76,0,0,0,.07-.41c.05-.67.08-1.34.09-2,.3-4.56.33-9.13-1.27-13.48C284.18,5.19,282.5,2.66,282-.47a17.32,17.32,0,0,1,.55-7.79c2.17-2.35,5.28-4,8-5.33a97.5,97.5,0,0,1,17.21-6.61c18.51-5.09,42.66-2.27,52.07,17C364.89,7.09,362.36,19,359.25,29.43Z"/><path class="cls-2" d="M76.49-.44C73.79-5.26,69.54-7.29,64.3-7.9c-2.21-.25-4-.08-5.92-1.62-1-.83-1.73-2-2.83-2.74A12.1,12.1,0,0,0,49-14.45c-6.57-.26-11.31,5.85-17.27,4.83-4.93-.85-9.69-1.87-14.44.51C12.73-6.82,10.56-2.28,10.46,2.7c-.15,7,1.94,15.18,4.18,21.69a.67.67,0,0,0,1.3-.18c0-9.1-7.49-28.71,6.32-30.65,4.67-.66,9,2.32,13.49,1.54,2-.35,3.38-1.79,5-2.83A14.35,14.35,0,0,1,49-10.17C54-9.89,55.48-4.52,60-3.6c2.58.52,5-.42,7.55.63a10.79,10.79,0,0,1,6.12,6.82c2.07,6.73-1.82,13.65-6.11,18.56-2,2.34-6.26,4.79-7.28,8a20.52,20.52,0,0,1-2-1.83,1,1,0,0,0-1.62,1.24c1.88,3.34,6.55,6.52,10.51,6.09,1.69-.19,2.46-2.95.44-3.28-.86-.15-1.71-.22-2.54-.33a2.2,2.2,0,0,0,0-1.41c1.52-2,5.85-5.57,6.74-6.66a32,32,0,0,0,4.82-7.82C78.85,11.07,79.37,4.72,76.49-.44Z"/><path class="cls-2" d="M253.92-2.28l.44-.26c1-.69.79-2.71-.69-2.54-3.07.35-5.93,3.15-7.49,5.68a1,1,0,0,0,1.5,1.15A24.3,24.3,0,0,1,249.85,0c3.91,3.4,6.76,6.86,6.76,12.33,0,5.68-3.42,10.84-8,14C239.7,32.37,221,31.69,218,19a9.52,9.52,0,0,1,4.41.72c1.4.55,2.41-1.81,1-2.46a9.22,9.22,0,0,0-9.94,1.26c-.79.73.22,1.74,1.07,1.38.48-.2.94-.36,1.39-.5.91,16.09,25,17,35.26,10,5.62-3.85,9.77-10.1,9.83-17C261.08,6.82,258.57.8,253.92-2.28Z"/><path class="cls-2" d="M227.66,5.84c-2-5-6.7-10.66-12.46-11.25a.77.77,0,0,0-.87.86,2.21,2.21,0,0,0-1,1.72c-.17,1.45,1,2.73,1.82,3.81a43.12,43.12,0,0,0,3.63,4.35c2.12,2.21,5.05,4.2,8.07,2.48A1.76,1.76,0,0,0,227.66,5.84Z"/><path class="cls-2" d="M232.28-5.81c-1.63-1.81-3.63-3.31-6.14-2.59a1.88,1.88,0,0,0-1.29,2.27c.48,2.34,2.28,2.3,4,3.45,2.34,1.58,2.76,4.77,3.43,7.27,1.06,3.95,3,8.33,7.51,9a1.87,1.87,0,0,0,2.33-1.78A21.74,21.74,0,0,0,232.28-5.81Z"/><path class="cls-2" d="M84.84,3.17c-4.11-22.91-29.4-32.61-50.2-29.66a85,85,0,0,0-20.76,6A69.46,69.46,0,0,0,2.56-14.92l.74-1.2a1.82,1.82,0,0,0,0-1.95,9.06,9.06,0,0,0,.47-1.2A2.27,2.27,0,0,0,2.28-22a46.35,46.35,0,0,0,20.1-16.22C29-47.69,30.75-59,29.72-70.36,27.7-92.5,21-114.4,2.1-127a4.41,4.41,0,0,0,2.36-2c1.09.45,2.17.92,3.24,1.42,3.67,1.72,8.93-2.08,6.14-6.13a31.72,31.72,0,0,0-4.14-4.82c1.83-2.17,1.22-6.56-2.08-7.6l-.38-.12a16,16,0,0,0-3.8-2.07l1.23-.74c3.89-2.43,1.83-7.83-1.65-8.39A27,27,0,0,0,7-163.95c5-11.81,4.26-27.13.46-39.19A50,50,0,0,0,1-216.33c2.59-.62,4.78-3.53,2.85-6.09-.44-.59-.86-1.18-1.29-1.77a4.68,4.68,0,0,0,1-6,3.73,3.73,0,0,0,1-4.11,50.56,50.56,0,0,1-3-21.42A3.78,3.78,0,0,0,.12-259a25.48,25.48,0,0,0-9.36-25.92c-4.57-3.51-9,4.27-4.52,7.74,6.88,5.26,6.84,15.4,2.71,22.3-4.82,8-13.66,12.38-22.47,14.61-15.92,4-43,6.23-47.12-15.17.14-.7.27-1.41.39-2.12A3.67,3.67,0,0,0-76-260.71a27.84,27.84,0,0,0-6.66-24.41c-3-3.41-8.22.24-7.27,4.23,3.64,15.21,3.17,34.33-12.6,42.47a3.65,3.65,0,0,0-1.88,2.3,40.6,40.6,0,0,0-4,3.49,4.09,4.09,0,0,0-3.11.6l-.1.06-13.59,1a4.5,4.5,0,0,0-2.64,1q-11.23-4.82-22.46-9.63a4.44,4.44,0,0,0-3-.23l-2.06-1.34a3.58,3.58,0,0,0-1.41-2.47,50.47,50.47,0,0,1-19.33-37.65,4.11,4.11,0,0,0-4.36-4.2,4.56,4.56,0,0,0-6.12-1.42,4.61,4.61,0,0,0-5.55-1.21c-2.28-1-5.14-.45-5.55,2.64-.06.38-.1.76-.14,1.14h0s0,.06,0,.1a46.14,46.14,0,0,0,.09,11.14h0s0,.08,0,.12A68.1,68.1,0,0,1-203.7-249a4.31,4.31,0,0,0,0,3.75,103.17,103.17,0,0,1-3.41,10.33c-2.68,5.34-6.1,10.41-8.83,15.76a4.62,4.62,0,0,0-4.5,1.8c-9.86,12.89-29.07,11.27-40.72,2.08-9.34-7.36-17.05-20-17.91-32.47a78,78,0,0,1,1.71-12.47c1.2-5.15-6-7-7.79-2.15a36.51,36.51,0,0,0-1.69,18.57c0,.29,0,.58.06.86h0a3.81,3.81,0,0,0,.27,1.3A54.68,54.68,0,0,0-280-225.22a31.12,31.12,0,0,0-9.3-3.6,1.91,1.91,0,0,0-1.46,3.47c2,1.41,4,2.94,5.86,4.57a3.39,3.39,0,0,0,.37,3.75,105,105,0,0,1,8,12.05,3.94,3.94,0,0,0-1.26,4.42q2.65,8.92,5.3,17.84a4.78,4.78,0,0,0,1.13,2c0,1.36.06,2.72.1,4.09-.23,1-.44,2.1-.65,3.17a85.2,85.2,0,0,1-8.7,16.28c-3.49,5.11-4.52,9.38-4.37,15.58.11,4.8.61,9.92,3.14,14.12a13.27,13.27,0,0,0,6.11,5.18,4.36,4.36,0,0,0,.73,1.51c12.75,17.5,24.87,38.13,22.93,60.62-.81,9.29-4.17,18.76-10.16,26-7.12,8.57-16.83,10.73-26.51,15.16-3.13,1.43-1.61,6.78,1.76,6.52a45,45,0,0,0,24.77-9.68,4.82,4.82,0,0,0,3.91-.11c22.69-10.07,49.68-.74,59.7,21.22.91,2.62,1.81,5.25,2.72,7.88a4.45,4.45,0,0,0,2.43,2.73q1.24,2.34,2.59,4.64c1.85,3.12,7.37,2.8,8.16-1.07a41.91,41.91,0,0,0,.83-8.46l.24.46a3.79,3.79,0,0,0,4.15,2.18C-176.18,24.9-162,39.56-145.36,46c9.39,4.7,19.9,7.45,30.39,5.39a38,38,0,0,0,24.64-17.1,38.63,38.63,0,0,0,4-31.1c-.07-.25-.14-.49-.22-.73A2.48,2.48,0,0,0-86,2.31s0,.09,0,.13a1,1,0,0,0,1.69.33,2.21,2.21,0,0,0,1,.12c.81,1.7,3.71,1.53,4-.37,1.17,2.71,2.18,5.46,2,8.49-.27,4.65-2.76,8.88-3.36,13.47-2.42,18.54,24.13,21.81,37,20.79,15.79-1.24,35.41-8,38.8-25.71C-3.44,11.88-6.23,5.42-11,.07l4.09,3.37a2.5,2.5,0,0,0,2.61.26c.81,1.83,1.85,3.58,2.72,5.38A28.5,28.5,0,0,1,1.24,23.62a1.71,1.71,0,0,0,.17.88c-.66,10.66-.33,20.64,5,30.5C17,74.32,42.26,81.93,60.2,68,69.56,60.67,75,49.9,78.91,39,82.94,27.71,87,15.23,84.84,3.17Zm-361-145.34a3.86,3.86,0,0,0-.82-.24c0-.76,0-1.49,0-2.18,0-.32,0-.63.06-.94a17.59,17.59,0,0,0,.65,2.2,3.52,3.52,0,0,0,.8,1.25,2.93,2.93,0,0,0,.05.29C-275.69-141.91-275.94-142-276.2-142.17ZM-109-206.81a14.39,14.39,0,0,1-.36-1.68,44.92,44.92,0,0,1,.69-6.18,13.62,13.62,0,0,1,5.86-6.86c5.56-3.26,12.35-2.78,18.26-.79,5.17,1.75,9.78,4.92,15.32,5.53,4.64.51,8.88-1.1,12.94-3.21,10.68-5.53,21.21-11.89,33.7-8.52,11,3,19.54,11.49,24,21.74A60.23,60.23,0,0,1,5-172.21a27.17,27.17,0,0,1-18,21c-14.89,4-32.67,1.94-42.54-9.75-4.18-5.61-6.63-12.47-11.34-17.73a18.67,18.67,0,0,0-10-6c-5.67-1.21-11.34.61-17,.29-11.19-.64-15.2-10.87-15.46-21.09A1.08,1.08,0,0,0-109-206.81ZM-8.83-142.35c-.49-.11-1-.2-1.47-.3l1.41-.39A4,4,0,0,0-8.83-142.35Zm-108.29-19.5a36.31,36.31,0,0,1,11-7.42,22.1,22.1,0,0,1,3.16-1c2.26,0,4.52,0,6.78,0,8.55,2.63,18.83,8.5,21.2,17.08a14,14,0,0,1-.32,3.56c-1.18,5.33-5.59,9.3-9.56,12.72-7.49,6.47-14.34,13-19.47,21.52s-6.9,17.59-10,26.89c-4,12.07-17.22,15.71-28.82,15.36-10.54-.32-22.8-3.21-30.69-10.64-8.23-7.75-9.08-20.16-5.45-30.34,3.72-10.4,11.89-18.43,21.85-22.91,9.2-4.14,19.16-6.22,27.3-12.48a64.64,64.64,0,0,0,5.89-5.25c1-.76,2-1.56,3-2.42A33.54,33.54,0,0,0-117.12-161.85Zm4.55,127.12a103.12,103.12,0,0,1-17.71.28,70.24,70.24,0,0,1-9.84-3c-5.45-2.11-11.52-5.79-12.14-12.2s5.43-9.71,10.86-10.94c5.11-1.16,10.28-1.37,15.37-2.7,3.7-1,9-2.29,12.77-.64,6,6.83,11.56,18.69,5.13,26A12.13,12.13,0,0,1-112.57-34.73Zm1.45,9-1.22,0-1.3-.07c.75-.08,1.5-.17,2.25-.28A3.18,3.18,0,0,0-111.12-25.68Zm-65.8-44.09a2.25,2.25,0,0,0-.06.36l-2.12-2.4C-178.39-71.12-177.65-70.45-176.92-69.77ZM-170.56-242l2,1.43-.14.19a22,22,0,0,0-2.18-1.59A2.85,2.85,0,0,0-170.56-242Zm-30.05,24.28c3.54-9.45,8.38-22.36,19.16-24.47a12.19,12.19,0,0,1,3.88.34c4.64,1.17,8,5,11.29,8.13,5.79,5.53,12.51,8.55,19.82,11.56,8.58,3.52,16.28,7.81,20.72,16.33a33.74,33.74,0,0,1,2.79,23.69c-4.24,16.71-21.3,27.58-38.06,27.24-17.93-.38-36.64-12.6-42.4-29.94C-207-195.7-204.51-207.31-200.61-217.72ZM-238.27-84a2.46,2.46,0,0,0-.07-.29c.08-.65.15-1.3.23-2,0,1.09,0,2.17.08,3.25Zm.61,34.36-.17-.23c0-.39.06-.79.07-1.19.15.46.31.92.48,1.37C-237.41-49.7-237.54-49.7-237.66-49.67Zm45.47,16.33a44.29,44.29,0,0,1-15.24-4.59,83.08,83.08,0,0,1-13.54-10c-1-1-1.93-2.07-2.82-3.16C-233.19-62.59-234.19-76-234-90.34c.13-11.09.06-23-5.89-32.84-3.47-5.72-8.67-8.57-13.62-12.75-6-5-7.8-12.44-7.39-20a42.86,42.86,0,0,1,8.52-23.46c2.61-1.89,5.26-3.75,7.95-5.47s5.62-3.38,8.91-3.27c2.92.1,5.38,1.66,7.95,2.8a1.09,1.09,0,0,0,.88,0c.5.4,1,.81,1.43,1.24a38.77,38.77,0,0,1,10.32,18.56c3.45,13.83-2.82,26.74-2.94,40.49-.11,13.17,8.46,22.84,16.11,32.71q6.17,7.94,12.71,15.58c4.66,5.43,9.94,10.5,14.19,16.26,3.89,5.26,6.82,12,3.45,18.24C-175.44-34.75-184.33-32.52-192.19-33.34Zm183.44,48c.44,9.11-6.1,16.71-13.7,20.82-8,4.33-17.68,6.05-26.71,6-8.52,0-21.75-1.51-26.66-9.76-4.37-7.34,3-16,1.86-23.86-.62-4.25-4.8-10.61-5.55-16a1.69,1.69,0,0,0,.21-.77c.51-12.56,21-8.55,28.54-6.91A82.41,82.41,0,0,1-26.23-6.1C-18.61-1.55-9.23,4.87-8.75,14.66Zm-24.8-41.08C-45.06-29.24-56.8-31.54-68.67-32c-9.3-.33-20.5,1.81-24.69,11.3C-98-10-89.63,1.07-89,11.67a34.49,34.49,0,0,1-17.67,32.09c-13.22,7.39-28.24,4.26-41-2.51a1.55,1.55,0,0,0-.91-.19c-15.68-10.16-29.39-26.31-23.15-46.14a25.44,25.44,0,0,1,7.79-12.3,54.69,54.69,0,0,1,6.2-3.72c13.34-5.48,32.27-.62,46.32-.39,7.92.13,16.25-1.8,19.74-9.7,4.17-9.44-.55-19.26-3.38-28.31-6.37-20.37.58-43.5,16.19-57.84,15.93-14.64,39.56-19.48,60.29-14,10.35,2.71,20.21,8,27.56,15.86,8.44,9,12,20.82,14.33,32.67,2.38,12.17,4,25.43-1.62,37A41.42,41.42,0,0,1,.24-25.95C-10.95-21.44-22.22-23.64-33.55-26.42ZM77.61,29.43c-3.13,10.57-7,21.43-14.27,29.91C56.71,67,47.44,72,37.11,71.26A34.19,34.19,0,0,1,11.39,55.79C5,46,4.06,35.28,4.74,24a2.5,2.5,0,0,0,.07-.41c.05-.67.07-1.34.08-2,.31-4.56.33-9.13-1.27-13.48C2.54,5.19.86,2.66.35-.47A17.32,17.32,0,0,1,.89-8.26c2.17-2.35,5.28-4,8-5.33A97.21,97.21,0,0,1,26.15-20.2c18.5-5.09,42.66-2.27,52.07,17C83.26,7.09,80.73,19,77.61,29.43Z"/></pattern></defs><polygon class="cls-5" points="250 0 0 0 0 250 0 500 250 500 500 500 500 250 500 0 250 0"/></svg>